<svg width="120" height="33" viewBox="0 0 120 33" fill="none" xmlns="http://www.w3.org/2000/svg">
<path d="M25.2652 2.33686L24.3008 7.5574C24.2044 8.04078 23.9151 8.33081 23.4329 8.33081C23.4329 8.33081 23.4329 8.33081 23.3365 8.33081C21.6972 8.23414 16.972 7.75075 13.8862 7.75075C12.729 7.75075 11.4754 8.13746 11.4754 9.49094C11.4754 10.071 11.8611 10.4577 13.3076 11.3278L18.4185 14.3248C21.4079 16.065 22.5651 18.3852 22.5651 21.3822C22.5651 29.213 16.0077 32.4033 8.87173 32.4033C5.40019 32.4033 2.79652 31.9199 0.578591 31.3399C0.289296 31.3399 0 31.0498 0 30.6631V30.5665L0.867887 25.4426C0.964319 24.9592 1.35005 24.5725 1.83221 24.5725C1.83221 24.5725 1.83221 24.5725 1.92864 24.5725C3.66441 24.7659 8.10028 25.2492 10.3182 25.2492C11.9576 25.2492 13.404 24.6692 13.404 22.7356C13.404 22.0589 13.0183 21.6722 11.7647 20.8021L6.3645 17.2251C3.85728 15.6782 2.70009 12.9713 2.70009 10.361C2.70009 2.82024 8.58244 0.5 15.2362 0.5C18.5149 0.5 22.9508 1.08006 24.4937 1.56344C24.783 1.66012 25.1687 1.85347 25.1687 2.24018C25.2652 2.24018 25.2652 2.33686 25.2652 2.33686Z" fill="white"/>
<path d="M48.9874 1.85347L48.1195 6.97734C48.0231 7.46072 47.5409 7.84743 47.1552 7.84743H38.6692C37.1263 7.84743 36.5477 8.33082 36.2584 9.97432L35.6798 13.068H45.998C46.3837 13.068 46.673 13.358 46.673 13.7447V13.8414L45.8051 18.7719C45.7087 19.2553 45.323 19.642 44.8408 19.642H34.619L33.944 23.1224C33.944 23.4124 33.8476 23.7024 33.8476 23.9924C33.8476 24.9592 34.3297 25.2492 35.5833 25.2492H44.0694C44.4551 25.2492 44.7444 25.5393 44.7444 25.926V26.0227L43.7801 31.1465C43.6836 31.6299 43.3943 31.9199 42.8157 32.0166C41.1764 32.21 38.6692 32.5 34.5226 32.5C29.6046 32.5 25.1687 30.7598 25.1687 25.2492C25.1687 24.5725 25.2651 23.8958 25.3616 23.1224L27.7724 9.87764C29.2188 1.37009 34.2333 0.5 40.2121 0.5C44.2622 0.5 46.8659 0.79003 48.4088 0.983384C48.8909 0.983384 49.0838 1.27341 49.0838 1.66012C48.9874 1.7568 48.9874 1.7568 48.9874 1.85347Z" fill="white"/>
<path d="M78.6885 1.75682L73.6741 30.5665C73.4812 31.4366 72.7097 32.1133 71.8419 32.1133H66.6345C65.8631 32.1133 65.3809 31.8233 65.0916 30.9532L58.92 16.8384C58.8236 16.645 58.6307 16.645 58.5343 16.645C58.4378 16.645 58.3414 16.7417 58.245 17.0317L55.7377 31.3399C55.6413 31.8233 55.1591 32.21 54.7734 32.21H48.5053C48.1196 32.21 47.8303 31.92 47.8303 31.5333V31.4366L52.8448 2.62691C53.0376 1.75682 53.8091 1.08008 54.677 1.08008H59.7879C60.5593 1.08008 60.9451 1.56346 61.2344 2.33688L67.5989 16.8384C67.6953 17.1284 67.7917 17.2251 67.8882 17.2251C67.9846 17.2251 68.1774 17.2251 68.1774 16.8384L70.7811 1.95017C70.8775 1.46679 71.3597 1.08008 71.7454 1.08008H78.0135C78.3992 1.08008 78.6885 1.37011 78.6885 1.75682Z" fill="white"/>
<path d="M102.603 32.1133H95.4675C95.0818 32.1133 94.7925 31.7266 94.7925 31.3399L94.6961 25.5393H87.2708L85.0529 31.3399C84.86 31.7266 84.4743 32.1133 84.0886 32.1133H76.6633C76.2776 32.1133 76.0847 31.9199 76.0847 31.5332C76.0847 31.4366 76.0847 31.3399 76.1811 31.2432L86.2101 5.52719C87.8494 1.37009 91.1281 0.5 95.1782 0.5C99.1319 0.5 102.218 1.37009 102.314 5.52719L103.375 31.2432C103.375 31.7266 102.989 32.1133 102.603 32.1133ZM94.4068 8.13746C94.4068 7.75075 94.4068 7.5574 94.021 7.5574C93.6353 7.5574 93.6353 7.75075 93.4425 8.13746L89.4887 18.7719H94.5032L94.4068 8.13746Z" fill="white"/>
<path d="M119.768 1.75681C119.865 1.17675 119.479 0.983398 119.093 0.983398H112.247C111.765 0.983398 111.379 1.27343 111.282 1.75681L109.932 9.20092L119.286 4.85047L119.768 1.75681Z" fill="#E84910"/>
<path d="M109.354 12.4879L106.075 31.3399C105.979 31.7266 106.268 32.21 106.75 32.21H113.597C114.272 32.21 114.561 31.8232 114.561 31.3399L118.611 8.13745L109.354 12.4879Z" fill="white"/>
</svg>
