<svg width="326" height="167" viewBox="0 0 326 167" fill="none" xmlns="http://www.w3.org/2000/svg">
<g filter="url(#filter0_d_50_2736)">
<path d="M3 0H323V148C323 154.627 317.627 160 311 160H15C8.37259 160 3 154.627 3 148V0Z" fill="#FAFAFA"/>
<g clip-path="url(#clip0_50_2736)">
<g filter="url(#filter1_i_50_2736)">
<rect x="16" y="7" width="294" height="36" rx="10" fill="black" fill-opacity="0.06"/>
<rect x="16" y="7" width="294" height="36" rx="10" fill="#0041BA" fill-opacity="0.75"/>
<g filter="url(#filter2_d_50_2736)">
<path d="M141.256 18.8636V30.5H139.148V18.8636H141.256ZM153.101 18.8636V30.5H151.226L145.743 22.5739H145.646V30.5H143.538V18.8636H145.425L150.902 26.7955H151.004V18.8636H153.101ZM157.506 18.8636V30.5H155.398V18.8636H157.506ZM155.665 17.7159L156.938 15.1193H158.949L157.205 17.7159H155.665ZM169.749 22.7898H167.624C167.563 22.4413 167.451 22.1326 167.288 21.8636C167.125 21.5909 166.923 21.3598 166.68 21.1705C166.438 20.9811 166.161 20.839 165.851 20.7443C165.544 20.6458 165.213 20.5966 164.857 20.5966C164.224 20.5966 163.663 20.7557 163.175 21.0739C162.686 21.3883 162.304 21.8504 162.027 22.4602C161.75 23.0663 161.612 23.8068 161.612 24.6818C161.612 25.572 161.75 26.322 162.027 26.9318C162.307 27.5379 162.69 27.9962 163.175 28.3068C163.663 28.6136 164.222 28.767 164.851 28.767C165.199 28.767 165.525 28.7216 165.828 28.6307C166.135 28.536 166.41 28.3977 166.652 28.2159C166.898 28.0341 167.105 27.8106 167.271 27.5455C167.442 27.2803 167.559 26.9773 167.624 26.6364L169.749 26.6477C169.669 27.2008 169.497 27.7197 169.232 28.2045C168.97 28.6894 168.627 29.1174 168.203 29.4886C167.779 29.8561 167.283 30.1439 166.714 30.3523C166.146 30.5568 165.516 30.6591 164.822 30.6591C163.8 30.6591 162.887 30.4223 162.084 29.9489C161.281 29.4754 160.648 28.7917 160.186 27.8977C159.724 27.0038 159.493 25.9318 159.493 24.6818C159.493 23.428 159.726 22.3561 160.192 21.4659C160.658 20.572 161.292 19.8883 162.095 19.4148C162.898 18.9413 163.807 18.7045 164.822 18.7045C165.47 18.7045 166.072 18.7955 166.629 18.9773C167.186 19.1591 167.682 19.4261 168.118 19.7784C168.554 20.1269 168.911 20.5549 169.192 21.0625C169.476 21.5663 169.661 22.142 169.749 22.7898ZM173.787 18.8636V30.5H171.679V18.8636H173.787ZM186.467 24.6818C186.467 25.9356 186.232 27.0095 185.763 27.9034C185.297 28.7936 184.661 29.4754 183.854 29.9489C183.051 30.4223 182.14 30.6591 181.121 30.6591C180.102 30.6591 179.189 30.4223 178.382 29.9489C177.579 29.4716 176.943 28.7879 176.473 27.8977C176.007 27.0038 175.774 25.9318 175.774 24.6818C175.774 23.428 176.007 22.3561 176.473 21.4659C176.943 20.572 177.579 19.8883 178.382 19.4148C179.189 18.9413 180.102 18.7045 181.121 18.7045C182.14 18.7045 183.051 18.9413 183.854 19.4148C184.661 19.8883 185.297 20.572 185.763 21.4659C186.232 22.3561 186.467 23.428 186.467 24.6818ZM184.348 24.6818C184.348 23.7992 184.21 23.0549 183.933 22.4489C183.661 21.839 183.282 21.3788 182.797 21.0682C182.312 20.7538 181.753 20.5966 181.121 20.5966C180.488 20.5966 179.929 20.7538 179.445 21.0682C178.96 21.3788 178.579 21.839 178.303 22.4489C178.03 23.0549 177.893 23.7992 177.893 24.6818C177.893 25.5644 178.03 26.3106 178.303 26.9205C178.579 27.5265 178.96 27.9867 179.445 28.3011C179.929 28.6117 180.488 28.767 181.121 28.767C181.753 28.767 182.312 28.6117 182.797 28.3011C183.282 27.9867 183.661 27.5265 183.933 26.9205C184.21 26.3106 184.348 25.5644 184.348 24.6818Z" fill="white"/>
</g>
</g>
<rect x="16" y="57" width="294" height="36" rx="10" fill="black" fill-opacity="0.26"/>
<g filter="url(#filter3_d_50_2736)">
<path d="M107.261 80.5H105.398L109.585 68.8636H111.614L115.801 80.5H113.938L110.648 70.9773H110.557L107.261 80.5ZM107.574 75.9432H113.619V77.4205H107.574V75.9432ZM115.533 70.375V68.8636H124.538V70.375H120.908V80.5H119.158V70.375H115.533ZM126.528 80.5V68.8636H133.824V70.375H128.284V73.9205H133.443V75.4261H128.284V78.9886H133.892V80.5H126.528ZM145.561 68.8636V80.5H143.947L138.033 71.9659H137.925V80.5H136.169V68.8636H137.794L143.714 77.4091H143.822V68.8636H145.561ZM151.889 80.5H148.122V68.8636H152.009C153.149 68.8636 154.128 69.0966 154.946 69.5625C155.764 70.0246 156.391 70.6894 156.827 71.5568C157.266 72.4205 157.486 73.4564 157.486 74.6648C157.486 75.8769 157.264 76.9186 156.821 77.7898C156.382 78.661 155.745 79.3314 154.912 79.8011C154.079 80.267 153.071 80.5 151.889 80.5ZM149.878 78.9659H151.793C152.679 78.9659 153.416 78.7992 154.003 78.4659C154.59 78.1288 155.029 77.642 155.321 77.0057C155.613 76.3655 155.759 75.5852 155.759 74.6648C155.759 73.7519 155.613 72.9773 155.321 72.3409C155.033 71.7045 154.603 71.2216 154.031 70.892C153.459 70.5625 152.749 70.3977 151.901 70.3977H149.878V78.9659ZM161.425 68.8636V80.5H159.669V68.8636H161.425ZM163.982 68.8636H166.112L169.817 77.9091H169.953L173.658 68.8636H175.788V80.5H174.118V72.0795H174.01L170.578 80.483H169.192L165.76 72.0739H165.652V80.5H163.982V68.8636ZM178.341 80.5V68.8636H185.636V70.375H180.097V73.9205H185.256V75.4261H180.097V78.9886H185.705V80.5H178.341ZM197.374 68.8636V80.5H195.76L189.845 71.9659H189.737V80.5H187.982V68.8636H189.607L195.527 77.4091H195.635V68.8636H197.374ZM199.361 70.375V68.8636H208.366V70.375H204.736V80.5H202.986V70.375H199.361ZM219.964 74.6818C219.964 75.9242 219.737 76.9924 219.283 77.8864C218.828 78.7765 218.205 79.4621 217.413 79.9432C216.625 80.4205 215.73 80.6591 214.726 80.6591C213.718 80.6591 212.819 80.4205 212.027 79.9432C211.239 79.4621 210.618 78.7746 210.163 77.8807C209.709 76.9867 209.482 75.9205 209.482 74.6818C209.482 73.4394 209.709 72.3731 210.163 71.483C210.618 70.589 211.239 69.9034 212.027 69.4261C212.819 68.9451 213.718 68.7045 214.726 68.7045C215.73 68.7045 216.625 68.9451 217.413 69.4261C218.205 69.9034 218.828 70.589 219.283 71.483C219.737 72.3731 219.964 73.4394 219.964 74.6818ZM218.226 74.6818C218.226 73.7348 218.072 72.9375 217.766 72.2898C217.463 71.6383 217.046 71.1458 216.516 70.8125C215.989 70.4754 215.393 70.3068 214.726 70.3068C214.055 70.3068 213.457 70.4754 212.93 70.8125C212.404 71.1458 211.987 71.6383 211.68 72.2898C211.377 72.9375 211.226 73.7348 211.226 74.6818C211.226 75.6288 211.377 76.428 211.68 77.0795C211.987 77.7273 212.404 78.2197 212.93 78.5568C213.457 78.8902 214.055 79.0568 214.726 79.0568C215.393 79.0568 215.989 78.8902 216.516 78.5568C217.046 78.2197 217.463 77.7273 217.766 77.0795C218.072 76.428 218.226 75.6288 218.226 74.6818Z" fill="#FAFAFA"/>
</g>
<rect x="16" y="107" width="294" height="36" rx="10" fill="black" fill-opacity="0.26"/>
<g filter="url(#filter4_d_50_2736)">
<path d="M112.557 126.727H114.284L115.5 128.312L116.074 129.017L118.011 131.545H116.216L114.92 129.858L114.477 129.244L112.557 126.727ZM118.386 124.682C118.386 125.924 118.159 126.992 117.705 127.886C117.25 128.777 116.627 129.462 115.835 129.943C115.047 130.42 114.152 130.659 113.148 130.659C112.14 130.659 111.241 130.42 110.449 129.943C109.661 129.462 109.04 128.775 108.585 127.881C108.131 126.987 107.903 125.92 107.903 124.682C107.903 123.439 108.131 122.373 108.585 121.483C109.04 120.589 109.661 119.903 110.449 119.426C111.241 118.945 112.14 118.705 113.148 118.705C114.152 118.705 115.047 118.945 115.835 119.426C116.627 119.903 117.25 120.589 117.705 121.483C118.159 122.373 118.386 123.439 118.386 124.682ZM116.648 124.682C116.648 123.735 116.494 122.937 116.188 122.29C115.884 121.638 115.468 121.146 114.938 120.812C114.411 120.475 113.814 120.307 113.148 120.307C112.477 120.307 111.879 120.475 111.352 120.812C110.826 121.146 110.409 121.638 110.102 122.29C109.799 122.937 109.648 123.735 109.648 124.682C109.648 125.629 109.799 126.428 110.102 127.08C110.409 127.727 110.826 128.22 111.352 128.557C111.879 128.89 112.477 129.057 113.148 129.057C113.814 129.057 114.411 128.89 114.938 128.557C115.468 128.22 115.884 127.727 116.188 127.08C116.494 126.428 116.648 125.629 116.648 124.682ZM128.058 118.864H129.82V126.517C129.82 127.331 129.628 128.053 129.246 128.682C128.863 129.307 128.325 129.799 127.632 130.159C126.939 130.515 126.126 130.693 125.195 130.693C124.267 130.693 123.456 130.515 122.763 130.159C122.07 129.799 121.532 129.307 121.149 128.682C120.767 128.053 120.575 127.331 120.575 126.517V118.864H122.331V126.375C122.331 126.902 122.446 127.369 122.678 127.778C122.912 128.188 123.244 128.509 123.672 128.744C124.1 128.975 124.607 129.091 125.195 129.091C125.786 129.091 126.295 128.975 126.723 128.744C127.155 128.509 127.484 128.188 127.712 127.778C127.943 127.369 128.058 126.902 128.058 126.375V118.864ZM132.372 130.5V118.864H139.668V120.375H134.128V123.92H139.287V125.426H134.128V128.989H139.736V130.5H132.372ZM142.013 118.864H144.143L147.848 127.909H147.984L151.689 118.864H153.82V130.5H152.149V122.08H152.041L148.609 130.483H147.223L143.791 122.074H143.683V130.5H142.013V118.864ZM166.953 121.92C166.893 121.383 166.643 120.966 166.203 120.67C165.764 120.371 165.211 120.222 164.544 120.222C164.067 120.222 163.654 120.297 163.305 120.449C162.957 120.597 162.686 120.801 162.493 121.062C162.304 121.32 162.209 121.614 162.209 121.943C162.209 122.22 162.273 122.458 162.402 122.659C162.535 122.86 162.707 123.028 162.919 123.165C163.135 123.297 163.366 123.409 163.612 123.5C163.858 123.587 164.095 123.659 164.322 123.716L165.459 124.011C165.83 124.102 166.211 124.225 166.601 124.381C166.991 124.536 167.353 124.741 167.686 124.994C168.019 125.248 168.288 125.562 168.493 125.938C168.701 126.312 168.805 126.761 168.805 127.284C168.805 127.943 168.635 128.528 168.294 129.04C167.957 129.551 167.466 129.955 166.822 130.25C166.182 130.545 165.408 130.693 164.499 130.693C163.627 130.693 162.874 130.555 162.237 130.278C161.601 130.002 161.103 129.61 160.743 129.102C160.383 128.591 160.184 127.985 160.146 127.284H161.908C161.942 127.705 162.078 128.055 162.317 128.335C162.559 128.612 162.868 128.818 163.243 128.955C163.622 129.087 164.036 129.153 164.487 129.153C164.983 129.153 165.425 129.076 165.811 128.92C166.201 128.761 166.508 128.542 166.732 128.261C166.955 127.977 167.067 127.646 167.067 127.267C167.067 126.922 166.968 126.64 166.771 126.42C166.578 126.201 166.315 126.019 165.982 125.875C165.652 125.731 165.279 125.604 164.862 125.494L163.487 125.119C162.555 124.866 161.817 124.492 161.271 124C160.73 123.508 160.459 122.856 160.459 122.045C160.459 121.375 160.641 120.79 161.004 120.29C161.368 119.79 161.86 119.402 162.482 119.125C163.103 118.845 163.804 118.705 164.584 118.705C165.372 118.705 166.067 118.843 166.669 119.119C167.275 119.396 167.752 119.777 168.101 120.261C168.449 120.742 168.631 121.295 168.646 121.92H166.953ZM181.011 124.682C181.011 125.924 180.784 126.992 180.33 127.886C179.875 128.777 179.252 129.462 178.46 129.943C177.672 130.42 176.777 130.659 175.773 130.659C174.765 130.659 173.866 130.42 173.074 129.943C172.286 129.462 171.665 128.775 171.21 127.881C170.756 126.987 170.528 125.92 170.528 124.682C170.528 123.439 170.756 122.373 171.21 121.483C171.665 120.589 172.286 119.903 173.074 119.426C173.866 118.945 174.765 118.705 175.773 118.705C176.777 118.705 177.672 118.945 178.46 119.426C179.252 119.903 179.875 120.589 180.33 121.483C180.784 122.373 181.011 123.439 181.011 124.682ZM179.273 124.682C179.273 123.735 179.119 122.937 178.812 122.29C178.509 121.638 178.093 121.146 177.562 120.812C177.036 120.475 176.439 120.307 175.773 120.307C175.102 120.307 174.504 120.475 173.977 120.812C173.451 121.146 173.034 121.638 172.727 122.29C172.424 122.937 172.273 123.735 172.273 124.682C172.273 125.629 172.424 126.428 172.727 127.08C173.034 127.727 173.451 128.22 173.977 128.557C174.504 128.89 175.102 129.057 175.773 129.057C176.439 129.057 177.036 128.89 177.562 128.557C178.093 128.22 178.509 127.727 178.812 127.08C179.119 126.428 179.273 125.629 179.273 124.682ZM183.2 118.864H185.331L189.036 127.909H189.172L192.876 118.864H195.007V130.5H193.337V122.08H193.229L189.797 130.483H188.411L184.979 122.074H184.871V130.5H183.2V118.864ZM207.668 124.682C207.668 125.924 207.44 126.992 206.986 127.886C206.531 128.777 205.908 129.462 205.116 129.943C204.329 130.42 203.433 130.659 202.429 130.659C201.421 130.659 200.522 130.42 199.73 129.943C198.942 129.462 198.321 128.775 197.866 127.881C197.412 126.987 197.185 125.92 197.185 124.682C197.185 123.439 197.412 122.373 197.866 121.483C198.321 120.589 198.942 119.903 199.73 119.426C200.522 118.945 201.421 118.705 202.429 118.705C203.433 118.705 204.329 118.945 205.116 119.426C205.908 119.903 206.531 120.589 206.986 121.483C207.44 122.373 207.668 123.439 207.668 124.682ZM205.929 124.682C205.929 123.735 205.776 122.937 205.469 122.29C205.166 121.638 204.749 121.146 204.219 120.812C203.692 120.475 203.096 120.307 202.429 120.307C201.759 120.307 201.16 120.475 200.634 120.812C200.107 121.146 199.69 121.638 199.384 122.29C199.08 122.937 198.929 123.735 198.929 124.682C198.929 125.629 199.08 126.428 199.384 127.08C199.69 127.727 200.107 128.22 200.634 128.557C201.16 128.89 201.759 129.057 202.429 129.057C203.096 129.057 203.692 128.89 204.219 128.557C204.749 128.22 205.166 127.727 205.469 127.08C205.776 126.428 205.929 125.629 205.929 124.682ZM216.203 121.92C216.143 121.383 215.893 120.966 215.453 120.67C215.014 120.371 214.461 120.222 213.794 120.222C213.317 120.222 212.904 120.297 212.555 120.449C212.207 120.597 211.936 120.801 211.743 121.062C211.554 121.32 211.459 121.614 211.459 121.943C211.459 122.22 211.523 122.458 211.652 122.659C211.785 122.86 211.957 123.028 212.169 123.165C212.385 123.297 212.616 123.409 212.862 123.5C213.108 123.587 213.345 123.659 213.572 123.716L214.709 124.011C215.08 124.102 215.461 124.225 215.851 124.381C216.241 124.536 216.603 124.741 216.936 124.994C217.269 125.248 217.538 125.562 217.743 125.938C217.951 126.312 218.055 126.761 218.055 127.284C218.055 127.943 217.885 128.528 217.544 129.04C217.207 129.551 216.716 129.955 216.072 130.25C215.432 130.545 214.658 130.693 213.749 130.693C212.877 130.693 212.124 130.555 211.487 130.278C210.851 130.002 210.353 129.61 209.993 129.102C209.633 128.591 209.434 127.985 209.396 127.284H211.158C211.192 127.705 211.328 128.055 211.567 128.335C211.809 128.612 212.118 128.818 212.493 128.955C212.872 129.087 213.286 129.153 213.737 129.153C214.233 129.153 214.675 129.076 215.061 128.92C215.451 128.761 215.758 128.542 215.982 128.261C216.205 127.977 216.317 127.646 216.317 127.267C216.317 126.922 216.218 126.64 216.021 126.42C215.828 126.201 215.565 126.019 215.232 125.875C214.902 125.731 214.529 125.604 214.112 125.494L212.737 125.119C211.805 124.866 211.067 124.492 210.521 124C209.98 123.508 209.709 122.856 209.709 122.045C209.709 121.375 209.891 120.79 210.254 120.29C210.618 119.79 211.11 119.402 211.732 119.125C212.353 118.845 213.054 118.705 213.834 118.705C214.622 118.705 215.317 118.843 215.919 119.119C216.525 119.396 217.002 119.777 217.351 120.261C217.699 120.742 217.881 121.295 217.896 121.92H216.203Z" fill="#FAFAFA"/>
</g>
</g>
</g>
<defs>
<filter id="filter0_d_50_2736" x="0.5" y="0" width="325" height="166.5" filterUnits="userSpaceOnUse" color-interpolation-filters="sRGB">
<feFlood flood-opacity="0" result="BackgroundImageFix"/>
<feColorMatrix in="SourceAlpha" type="matrix" values="0 0 0 0 0 0 0 0 0 0 0 0 0 0 0 0 0 0 127 0" result="hardAlpha"/>
<feOffset dy="4"/>
<feGaussianBlur stdDeviation="1.25"/>
<feComposite in2="hardAlpha" operator="out"/>
<feColorMatrix type="matrix" values="0 0 0 0 0 0 0 0 0 0 0 0 0 0 0 0 0 0 0.23 0"/>
<feBlend mode="normal" in2="BackgroundImageFix" result="effect1_dropShadow_50_2736"/>
<feBlend mode="normal" in="SourceGraphic" in2="effect1_dropShadow_50_2736" result="shape"/>
</filter>
<filter id="filter1_i_50_2736" x="16" y="7" width="294" height="38.5" filterUnits="userSpaceOnUse" color-interpolation-filters="sRGB">
<feFlood flood-opacity="0" result="BackgroundImageFix"/>
<feBlend mode="normal" in="SourceGraphic" in2="BackgroundImageFix" result="shape"/>
<feColorMatrix in="SourceAlpha" type="matrix" values="0 0 0 0 0 0 0 0 0 0 0 0 0 0 0 0 0 0 127 0" result="hardAlpha"/>
<feOffset dy="3"/>
<feGaussianBlur stdDeviation="1.25"/>
<feComposite in2="hardAlpha" operator="arithmetic" k2="-1" k3="1"/>
<feColorMatrix type="matrix" values="0 0 0 0 0 0 0 0 0 0 0 0 0 0 0 0 0 0 0.1 0"/>
<feBlend mode="normal" in2="shape" result="effect1_innerShadow_50_2736"/>
</filter>
<filter id="filter2_d_50_2736" x="135.948" y="11.9194" width="53.7196" height="21.9398" filterUnits="userSpaceOnUse" color-interpolation-filters="sRGB">
<feFlood flood-opacity="0" result="BackgroundImageFix"/>
<feColorMatrix in="SourceAlpha" type="matrix" values="0 0 0 0 0 0 0 0 0 0 0 0 0 0 0 0 0 0 127 0" result="hardAlpha"/>
<feOffset/>
<feGaussianBlur stdDeviation="1.6"/>
<feComposite in2="hardAlpha" operator="out"/>
<feColorMatrix type="matrix" values="0 0 0 0 0 0 0 0 0 0 0 0 0 0 0 0 0 0 0.56 0"/>
<feBlend mode="normal" in2="BackgroundImageFix" result="effect1_dropShadow_50_2736"/>
<feBlend mode="normal" in="SourceGraphic" in2="effect1_dropShadow_50_2736" result="shape"/>
</filter>
<filter id="filter3_d_50_2736" x="102.998" y="67.3046" width="119.367" height="16.7546" filterUnits="userSpaceOnUse" color-interpolation-filters="sRGB">
<feFlood flood-opacity="0" result="BackgroundImageFix"/>
<feColorMatrix in="SourceAlpha" type="matrix" values="0 0 0 0 0 0 0 0 0 0 0 0 0 0 0 0 0 0 127 0" result="hardAlpha"/>
<feOffset dy="1"/>
<feGaussianBlur stdDeviation="1.2"/>
<feComposite in2="hardAlpha" operator="out"/>
<feColorMatrix type="matrix" values="0 0 0 0 0 0 0 0 0 0 0 0 0 0 0 0 0 0 0.71 0"/>
<feBlend mode="normal" in2="BackgroundImageFix" result="effect1_dropShadow_50_2736"/>
<feBlend mode="normal" in="SourceGraphic" in2="effect1_dropShadow_50_2736" result="shape"/>
</filter>
<filter id="filter4_d_50_2736" x="105.503" y="117.305" width="114.952" height="17.6408" filterUnits="userSpaceOnUse" color-interpolation-filters="sRGB">
<feFlood flood-opacity="0" result="BackgroundImageFix"/>
<feColorMatrix in="SourceAlpha" type="matrix" values="0 0 0 0 0 0 0 0 0 0 0 0 0 0 0 0 0 0 127 0" result="hardAlpha"/>
<feOffset dy="1"/>
<feGaussianBlur stdDeviation="1.2"/>
<feComposite in2="hardAlpha" operator="out"/>
<feColorMatrix type="matrix" values="0 0 0 0 0 0 0 0 0 0 0 0 0 0 0 0 0 0 0.71 0"/>
<feBlend mode="normal" in2="BackgroundImageFix" result="effect1_dropShadow_50_2736"/>
<feBlend mode="normal" in="SourceGraphic" in2="effect1_dropShadow_50_2736" result="shape"/>
</filter>
<clipPath id="clip0_50_2736">
<rect width="318" height="150" fill="white" transform="translate(4)"/>
</clipPath>
</defs>
</svg>
