<?xml version="1.0" encoding="UTF-8"?> <svg xmlns="http://www.w3.org/2000/svg" xmlns:xlink="http://www.w3.org/1999/xlink" version="1.1" id="Camada_1" x="0px" y="0px" viewBox="0 0 206 34" style="enable-background:new 0 0 206 34;" xml:space="preserve"> <style type="text/css"> .st0{fill:#575756;} .st1{fill:#164194;} .st2{fill:#E84910;} </style> <g> <g> <g> <path class="st0" d="M139.9,0.8c0.1,0,0.2,0.1,0.1,0.2l-0.1,0.4c0,0.1-0.1,0.2-0.2,0.2c-0.5,0-1.2-0.1-1.8-0.1 c-0.8,0-1.7,0.1-1.7,1c0,0.5,0.2,0.7,0.9,1.2l0.8,0.6c1,0.6,1.3,1.2,1.3,1.9c0,1.4-1.2,2.2-2.9,2.2c-0.6,0-1.3-0.1-1.7-0.1 c-0.1,0-0.2-0.1-0.2-0.2l0.1-0.4c0-0.1,0.1-0.2,0.2-0.2c0.5,0,1.2,0.1,1.7,0.1c1.1,0,1.8-0.4,1.8-1.4c0-0.5-0.3-0.7-1-1.2 l-0.9-0.6c-0.7-0.5-1.1-1.1-1.1-1.8c0-1.4,1.2-1.9,2.6-1.9C138.5,0.7,139.5,0.8,139.9,0.8z"></path> <path class="st0" d="M144.8,5.2l-0.1,0.4c0,0.1-0.1,0.2-0.2,0.2H141l0,0.1c0,0.2-0.1,0.4-0.1,0.6c0,0.8,0.5,1.1,1.3,1.1 c0.6,0,1.3-0.1,1.8-0.1c0.2,0,0.2,0,0.2,0.1l-0.1,0.3c0,0.1-0.1,0.2-0.2,0.2c-0.6,0.1-1.1,0.2-1.8,0.2c-1,0-2-0.5-2-1.9 c0-0.2,0-0.4,0.1-0.6l0.1-0.7c0.3-1.6,1.3-2.5,2.7-2.5c1.3,0,1.9,0.8,1.9,1.9C144.8,4.8,144.8,5,144.8,5.2z M142.8,3.5 c-0.9,0-1.5,0.7-1.7,1.6l0,0.1h2.7l0-0.1c0-0.2,0.1-0.4,0.1-0.6C143.9,3.8,143.5,3.5,142.8,3.5z"></path> <path class="st0" d="M146.1,8.2c0,0.1-0.1,0.2-0.2,0.2h-0.5c-0.1,0-0.2-0.1-0.2-0.2l0.9-5.2c0-0.1,0.1-0.2,0.2-0.2h0.5 c0.1,0,0.2,0.1,0.2,0.2l0,0.2c0.6-0.4,1-0.5,1.5-0.5h0c0.2,0,0.2,0.1,0.2,0.2l-0.1,0.4c0,0.1-0.1,0.2-0.2,0.2h0 c-0.6,0-1,0.1-1.5,0.4L146.1,8.2z"></path> <path class="st0" d="M153.7,3l-2.1,4.7c-0.3,0.6-0.7,0.8-1.1,0.8c-0.4,0-0.8-0.2-0.9-0.8L149,3c0-0.2,0.1-0.2,0.2-0.2h0.5 c0.1,0,0.2,0.1,0.2,0.2l0.4,4.4c0,0.3,0.1,0.3,0.2,0.3c0.1,0,0.2-0.1,0.3-0.3l1.9-4.4c0.1-0.1,0.1-0.2,0.3-0.2h0.6 c0.1,0,0.1,0.1,0.1,0.1C153.7,2.9,153.7,3,153.7,3z"></path> <path class="st0" d="M155.3,2.8c0.1,0,0.2,0,0.2,0.2l-0.9,5.2c0,0.1-0.1,0.2-0.2,0.2h-0.5c-0.1,0-0.2-0.1-0.2-0.2l0.9-5.2 c0-0.2,0.1-0.2,0.2-0.2H155.3z M155.7,0.6c0.1,0,0.2,0.1,0.2,0.2l-0.1,0.8c0,0.1-0.1,0.2-0.2,0.2H155c-0.2,0-0.2-0.1-0.2-0.2 l0.1-0.8c0-0.1,0.1-0.2,0.2-0.2H155.7z"></path> <path class="st0" d="M160.2,3l-0.1,0.4c0,0.1-0.1,0.2-0.2,0.2c0,0,0,0,0,0c-0.4-0.1-0.7-0.1-1.3-0.1c-0.8,0-1.4,0.6-1.6,1.7 L156.9,6c0,0.2-0.1,0.4-0.1,0.6c0,0.8,0.4,1.1,1,1.1c0.5,0,0.8,0,1.3-0.1c0,0,0,0,0,0c0.1,0,0.2,0,0.2,0.1c0,0,0,0,0,0l-0.1,0.4 c0,0.1-0.1,0.2-0.2,0.2c-0.3,0.1-0.8,0.1-1.3,0.1c-1.2,0-1.8-0.8-1.8-1.9c0-0.2,0-0.4,0.1-0.6l0.1-0.8c0.3-1.7,1.2-2.5,2.6-2.5 c0.5,0,0.9,0.1,1.3,0.1C160.2,2.8,160.2,2.9,160.2,3C160.2,3,160.2,3,160.2,3z M158.3,8.9l-1.4,1.3c-0.1,0.1-0.1,0.2-0.3,0.2H156 c-0.1,0-0.1,0-0.1-0.1c0,0,0-0.1,0.1-0.1l1.2-1.3c0.1-0.1,0.2-0.2,0.3-0.2h0.7C158.3,8.7,158.3,8.7,158.3,8.9 C158.3,8.8,158.3,8.8,158.3,8.9z"></path> <path class="st0" d="M164.7,5.2L164.6,6c-0.3,1.6-1.1,2.5-2.7,2.5c-1.2,0-1.9-0.8-1.9-1.9c0-0.2,0-0.4,0.1-0.6l0.1-0.8 c0.3-1.7,1.2-2.5,2.7-2.5c1.3,0,1.9,0.8,1.9,1.9C164.8,4.8,164.8,5,164.7,5.2z M162.8,3.5c-0.9,0-1.5,0.7-1.7,1.7L160.9,6 c0,0.2-0.1,0.4-0.1,0.6c0,0.7,0.3,1.1,1.1,1.1c0.9,0,1.5-0.7,1.7-1.7l0.1-0.8c0-0.2,0.1-0.4,0.1-0.6 C163.9,3.9,163.6,3.5,162.8,3.5z"></path> <path class="st0" d="M173.5,1c0-0.1,0.1-0.2,0.2-0.2h0.5c0.1,0,0.2,0.1,0.2,0.2c0,0,0,0,0,0l-1.3,7.1c0,0.2-0.1,0.3-0.3,0.3h-0.6 c-0.2,0-0.3-0.1-0.3-0.2l-2.2-6l0,0c0,0,0,0,0,0l-1.1,6c0,0.1-0.1,0.2-0.2,0.2h-0.6c-0.1,0-0.1,0-0.1-0.1l1.3-7.2 c0-0.2,0.1-0.3,0.3-0.3h0.5c0.3,0,0.3,0.1,0.4,0.2l2.1,5.9c0,0.1,0,0.1,0,0.1c0,0,0,0,0-0.1L173.5,1z"></path> <path class="st0" d="M179.1,2.9c0.2,0,0.2,0.1,0.2,0.2l-0.9,5c0,0.1-0.1,0.2-0.2,0.2h-0.4c-0.2,0-0.2-0.1-0.2-0.2l0.1-0.3 c-0.6,0.4-1,0.6-1.6,0.6c-0.9,0-1.6-0.6-1.6-1.8c0-0.2,0-0.4,0.1-0.6l0.2-1c0.3-1.8,1.4-2.3,2.7-2.3 C177.9,2.7,178.6,2.8,179.1,2.9z M177.3,3.4c-1.1,0-1.6,0.6-1.8,1.7l-0.2,1.1c0,0.2,0,0.3,0,0.5c0,0.8,0.4,1.1,0.9,1.1 c0.5,0,0.9-0.2,1.5-0.6l0.6-3.6C178,3.5,177.7,3.4,177.3,3.4z"></path> <path class="st0" d="M180.7,5.2L180.6,6c0,0.2-0.1,0.4-0.1,0.6c0,0.8,0.4,1.1,1,1.1c0.5,0,0.8,0,1.3-0.1c0.2,0,0.2,0,0.2,0.2 L183,8.1c0,0.1-0.1,0.2-0.2,0.2c-0.3,0.1-0.8,0.1-1.3,0.1c-1.2,0-1.8-0.8-1.8-1.9c0-0.2,0-0.4,0.1-0.6l0.1-0.8 c0.3-1.7,1.2-2.5,2.6-2.5c0.5,0,0.9,0.1,1.3,0.1c0.2,0,0.2,0.1,0.2,0.2l-0.1,0.4c0,0.1-0.1,0.2-0.2,0.2c-0.4-0.1-0.7-0.1-1.3-0.1 C181.5,3.5,180.9,4.1,180.7,5.2z"></path> <path class="st0" d="M185.6,2.8c0.1,0,0.2,0,0.2,0.2l-0.9,5.2c0,0.1-0.1,0.2-0.2,0.2h-0.5c-0.1,0-0.2-0.1-0.2-0.2l0.9-5.2 c0-0.2,0.1-0.2,0.2-0.2H185.6z M186,0.6c0.1,0,0.2,0.1,0.2,0.2l-0.1,0.8c0,0.1-0.1,0.2-0.2,0.2h-0.5c-0.2,0-0.2-0.1-0.2-0.2 l0.1-0.8c0-0.1,0.1-0.2,0.2-0.2H186z"></path> <path class="st0" d="M191,5.2L190.9,6c-0.3,1.6-1.1,2.5-2.7,2.5c-1.2,0-1.9-0.8-1.9-1.9c0-0.2,0-0.4,0.1-0.6l0.1-0.8 c0.3-1.7,1.2-2.5,2.7-2.5c1.3,0,1.9,0.8,1.9,1.9C191.1,4.8,191.1,5,191,5.2z M189.1,3.5c-0.9,0-1.5,0.7-1.7,1.7L187.2,6 c0,0.2-0.1,0.4-0.1,0.6c0,0.7,0.3,1.1,1.1,1.1c0.9,0,1.5-0.7,1.7-1.7l0.1-0.8c0-0.2,0.1-0.4,0.1-0.6 C190.2,3.9,189.9,3.5,189.1,3.5z"></path> <path class="st0" d="M196.4,4.8l-0.6,3.4c0,0.1-0.1,0.2-0.2,0.2H195c-0.1,0-0.2-0.1-0.2-0.2l0.6-3.4c0-0.2,0.1-0.4,0.1-0.6 c0-0.5-0.2-0.8-1-0.8c-0.4,0-0.8,0.1-1.4,0.4l-0.8,4.3c0,0.1-0.1,0.2-0.2,0.2h-0.5c-0.1,0-0.2-0.1-0.2-0.2l0.9-5.2 c0-0.1,0.1-0.2,0.3-0.2h0.4c0.2,0,0.2,0.1,0.2,0.2l0,0.2c0.5-0.3,1-0.5,1.6-0.5c1.1,0,1.5,0.7,1.5,1.6 C196.4,4.4,196.4,4.6,196.4,4.8z"></path> <path class="st0" d="M201.6,2.9c0.2,0,0.2,0.1,0.2,0.2l-0.9,5c0,0.1-0.1,0.2-0.2,0.2h-0.4c-0.2,0-0.2-0.1-0.2-0.2l0.1-0.3 c-0.6,0.4-1,0.6-1.6,0.6c-0.9,0-1.6-0.6-1.6-1.8c0-0.2,0-0.4,0.1-0.6l0.2-1c0.3-1.8,1.4-2.3,2.7-2.3 C200.4,2.7,201.1,2.8,201.6,2.9z M199.8,3.4c-1.1,0-1.6,0.6-1.8,1.7l-0.2,1.1c0,0.2,0,0.3,0,0.5c0,0.8,0.4,1.1,0.9,1.1 c0.5,0,0.9-0.2,1.5-0.6l0.6-3.6C200.5,3.5,200.2,3.4,199.8,3.4z"></path> <path class="st0" d="M204.2,0.7c0.1,0,0.2,0.1,0.1,0.2L203,8.2c0,0.1-0.1,0.2-0.2,0.2h-0.5c-0.1,0-0.2-0.1-0.1-0.2l1.3-7.3 c0-0.1,0.1-0.2,0.2-0.2H204.2z"></path> <path class="st0" d="M137.2,13h0.5c0.1,0,0.2,0.1,0.1,0.2l-1.3,7.2c0,0.1-0.1,0.2-0.3,0.2c-0.7,0.1-1.3,0.2-1.9,0.2 c-1.3,0-1.9-0.8-1.9-1.9c0-0.2,0-0.4,0.1-0.6l0.1-0.7c0.3-1.8,1.2-2.5,2.7-2.5c0.3,0,0.8,0,1.2,0.1l0.3-1.9 C137,13,137.1,13,137.2,13z M135.3,15.8c-1,0-1.5,0.7-1.6,1.7l-0.1,0.7c0,0.2-0.1,0.5-0.1,0.7c0,0.7,0.3,1.1,1.1,1.1 c0.3,0,0.9,0,1.2-0.1l0.7-4.1C136.2,15.8,135.7,15.8,135.3,15.8z"></path> <path class="st0" d="M142.6,17.5l-0.1,0.4c0,0.1-0.1,0.2-0.2,0.2h-3.5l0,0.1c0,0.2-0.1,0.4-0.1,0.6c0,0.8,0.5,1.1,1.3,1.1 c0.6,0,1.3-0.1,1.8-0.1c0.2,0,0.2,0,0.2,0.1l-0.1,0.3c0,0.1-0.1,0.2-0.2,0.2c-0.6,0.1-1.1,0.2-1.8,0.2c-1,0-2-0.5-2-1.9 c0-0.2,0-0.4,0.1-0.6l0.1-0.7c0.3-1.6,1.3-2.5,2.7-2.5c1.3,0,1.9,0.8,1.9,1.9C142.7,17.1,142.7,17.3,142.6,17.5z M140.7,15.8 c-0.9,0-1.5,0.7-1.7,1.6l0,0.1h2.7l0-0.1c0-0.2,0.1-0.4,0.1-0.6C141.8,16.1,141.4,15.8,140.7,15.8z"></path> <path class="st0" d="M150.9,20.7h-0.6c-0.1,0-0.1-0.1-0.1-0.2l-0.3-2.4h-2.7l-1.1,2.4c0,0.1-0.1,0.2-0.2,0.2h-0.6 c-0.1,0-0.1-0.1-0.1-0.1c0,0,0-0.1,0-0.1l3.1-6.7c0.3-0.6,0.7-0.8,1.2-0.8c0.4,0,0.8,0.1,0.9,0.8l0.7,6.7c0,0,0,0,0,0 C151.1,20.6,151,20.7,150.9,20.7z M149.5,14c0-0.1-0.1-0.2-0.2-0.2c-0.1,0-0.2,0.1-0.2,0.2l-1.5,3.4h2.3L149.5,14z"></path> <path class="st0" d="M156.6,17.5l-0.1,0.7c-0.3,1.7-1.1,2.5-2.7,2.5c-0.3,0-0.8,0-1.2-0.1l-0.3,1.9c0,0.1-0.1,0.2-0.2,0.2h-0.5 c-0.1,0-0.1-0.1-0.1-0.2c0,0,0,0,0,0v0l1.2-7c0-0.1,0.1-0.2,0.3-0.2c0.6-0.1,1.3-0.2,1.9-0.2c1.3,0,1.9,0.8,1.9,1.9 C156.7,17.1,156.7,17.3,156.6,17.5z M154.7,15.7c-0.4,0-0.9,0.1-1.2,0.1l-0.7,4.1c0.3,0.1,0.9,0.1,1.2,0.1c0.9,0,1.4-0.7,1.6-1.8 l0.1-0.7c0.1-0.3,0.1-0.5,0.1-0.7C155.8,16.1,155.5,15.7,154.7,15.7z"></path> <path class="st0" d="M158,20.5c0,0.1-0.1,0.2-0.2,0.2h-0.5c-0.1,0-0.2-0.1-0.2-0.2l0.9-5.2c0-0.1,0.1-0.2,0.2-0.2h0.5 c0.1,0,0.2,0.1,0.2,0.2l0,0.2c0.6-0.4,1-0.5,1.5-0.5h0c0.2,0,0.2,0.1,0.2,0.2l-0.1,0.4c0,0.1-0.1,0.2-0.2,0.2h0 c-0.6,0-1,0.1-1.5,0.4L158,20.5z"></path> <path class="st0" d="M164.9,17.5l-0.1,0.4c0,0.1-0.1,0.2-0.2,0.2h-3.5l0,0.1c0,0.2-0.1,0.4-0.1,0.6c0,0.8,0.5,1.1,1.3,1.1 c0.6,0,1.3-0.1,1.8-0.1c0.2,0,0.2,0,0.2,0.1l-0.1,0.3c0,0.1-0.1,0.2-0.2,0.2c-0.6,0.1-1.1,0.2-1.8,0.2c-1,0-2-0.5-2-1.9 c0-0.2,0-0.4,0.1-0.6l0.1-0.7c0.3-1.6,1.3-2.5,2.7-2.5c1.3,0,1.9,0.8,1.9,1.9C165,17.1,165,17.3,164.9,17.5z M163,15.8 c-0.9,0-1.5,0.7-1.7,1.6l0,0.1h2.7l0-0.1c0-0.2,0.1-0.4,0.1-0.6C164.1,16.1,163.7,15.8,163,15.8z"></path> <path class="st0" d="M170.3,17.1l-0.6,3.4c0,0.1-0.1,0.2-0.2,0.2h-0.5c-0.1,0-0.2-0.1-0.2-0.2l0.6-3.4c0-0.2,0.1-0.4,0.1-0.6 c0-0.5-0.2-0.8-1-0.8c-0.4,0-0.8,0.1-1.4,0.4l-0.8,4.3c0,0.1-0.1,0.2-0.2,0.2h-0.5c-0.1,0-0.2-0.1-0.2-0.2l0.9-5.2 c0-0.1,0.1-0.2,0.3-0.2h0.4c0.2,0,0.2,0.1,0.2,0.2l0,0.2c0.5-0.3,1-0.5,1.6-0.5c1.1,0,1.5,0.7,1.5,1.6 C170.3,16.7,170.3,16.9,170.3,17.1z"></path> <path class="st0" d="M175.6,13h0.5c0.1,0,0.2,0.1,0.1,0.2l-1.3,7.2c0,0.1-0.1,0.2-0.3,0.2c-0.7,0.1-1.3,0.2-1.9,0.2 c-1.3,0-1.9-0.8-1.9-1.9c0-0.2,0-0.4,0.1-0.6l0.1-0.7c0.3-1.8,1.2-2.5,2.7-2.5c0.3,0,0.8,0,1.2,0.1l0.3-1.9 C175.4,13,175.4,13,175.6,13z M173.7,15.8c-1,0-1.5,0.7-1.6,1.7l-0.1,0.7c0,0.2-0.1,0.5-0.1,0.7c0,0.7,0.3,1.1,1.1,1.1 c0.3,0,0.9,0,1.2-0.1l0.7-4.1C174.5,15.8,174,15.8,173.7,15.8z"></path> <path class="st0" d="M177.8,15c0.1,0,0.2,0,0.2,0.2l-0.9,5.2c0,0.1-0.1,0.2-0.2,0.2h-0.5c-0.1,0-0.2-0.1-0.2-0.2l0.9-5.2 c0-0.2,0.1-0.2,0.2-0.2H177.8z M178.2,12.9c0.1,0,0.2,0.1,0.2,0.2l-0.1,0.8c0,0.1-0.1,0.2-0.2,0.2h-0.5c-0.2,0-0.2-0.1-0.2-0.2 l0.1-0.8c0-0.1,0.1-0.2,0.2-0.2H178.2z"></path> <path class="st0" d="M182.4,16.4l-3.2,3.3c-0.1,0.1-0.1,0.1-0.1,0.1c0,0,0,0.1,0.1,0.1h2.6c0.2,0,0.2,0.1,0.2,0.2l-0.1,0.3 c0,0.2-0.1,0.2-0.2,0.2h-2.6c-0.6,0-0.9-0.3-0.9-0.7c0-0.2,0.1-0.4,0.2-0.6l3.3-3.4c0.1-0.1,0.1-0.1,0.1-0.1s0-0.1-0.1-0.1h-2.5 c-0.1,0-0.2-0.1-0.2-0.2l0.1-0.3c0-0.2,0.1-0.2,0.2-0.2h2.6c0.6,0,0.8,0.3,0.8,0.7C182.6,16,182.6,16.2,182.4,16.4z"></path> <path class="st0" d="M187.6,15.2c0.2,0,0.2,0.1,0.2,0.2l-0.9,5c0,0.1-0.1,0.2-0.2,0.2h-0.4c-0.2,0-0.2-0.1-0.2-0.2l0.1-0.3 c-0.6,0.4-1,0.6-1.6,0.6c-0.9,0-1.6-0.6-1.6-1.8c0-0.2,0-0.4,0.1-0.6l0.2-1c0.3-1.8,1.4-2.3,2.7-2.3 C186.4,15,187,15.1,187.6,15.2z M185.8,15.7c-1.1,0-1.6,0.6-1.8,1.7l-0.2,1.1c0,0.2,0,0.3,0,0.5c0,0.8,0.4,1.1,0.9,1.1 c0.5,0,0.9-0.2,1.5-0.6l0.6-3.6C186.5,15.8,186.2,15.7,185.8,15.7z"></path> <path class="st0" d="M188.3,17.5c0.3-1.8,1.2-2.5,2.7-2.5c0.6,0,1.3,0.1,1.8,0.2c0.2,0,0.2,0.1,0.2,0.2l-0.9,5.2 c-0.3,1.6-1,2-2.4,2c-0.8,0-1.4-0.1-1.7-0.2c-0.2,0-0.2-0.1-0.2-0.2l0.1-0.3c0-0.1,0.1-0.2,0.2-0.2c0.3,0,1.2,0.1,1.7,0.1 c0.9,0,1.2-0.3,1.4-1.2l0-0.1c-0.3,0.1-0.9,0.1-1.2,0.1c-1.1,0-1.9-0.5-1.9-1.8c0-0.2,0-0.4,0.1-0.7L188.3,17.5z M190.9,15.7 c-1,0-1.5,0.6-1.7,1.8l-0.1,0.7c-0.1,0.3-0.1,0.5-0.1,0.7c0,0.8,0.4,1,1.1,1c0.3,0,0.8,0,1.2-0.1l0.7-4 C191.7,15.8,191.3,15.7,190.9,15.7z"></path> <path class="st0" d="M198.1,17.5l-0.1,0.4c0,0.1-0.1,0.2-0.2,0.2h-3.5l0,0.1c0,0.2-0.1,0.4-0.1,0.6c0,0.8,0.5,1.1,1.3,1.1 c0.6,0,1.3-0.1,1.8-0.1c0.2,0,0.2,0,0.2,0.1l-0.1,0.3c0,0.1-0.1,0.2-0.2,0.2c-0.6,0.1-1.1,0.2-1.8,0.2c-1,0-2-0.5-2-1.9 c0-0.2,0-0.4,0.1-0.6l0.1-0.7c0.3-1.6,1.3-2.5,2.7-2.5c1.3,0,1.9,0.8,1.9,1.9C198.2,17.1,198.2,17.3,198.1,17.5z M196.2,15.8 c-0.9,0-1.5,0.7-1.7,1.6l0,0.1h2.7l0-0.1c0-0.2,0.1-0.4,0.1-0.6C197.3,16.1,196.9,15.8,196.2,15.8z"></path> <path class="st0" d="M205.9,16.9l-0.6,3.6c0,0.1-0.1,0.2-0.2,0.2h-0.5c-0.1,0-0.2-0.1-0.2-0.2l0.6-3.6c0-0.2,0-0.3,0-0.4 c0-0.5-0.3-0.7-0.8-0.7c-0.3,0-0.8,0.1-1.3,0.3c0,0.2,0,0.6,0,0.8l-0.6,3.6c0,0.1-0.1,0.2-0.2,0.2h-0.5c-0.1,0-0.2-0.1-0.1-0.2 l0.6-3.6c0-0.2,0.1-0.4,0.1-0.6c0-0.4-0.3-0.6-0.6-0.6c-0.5,0-1.1,0.3-1.4,0.4l-0.8,4.3c0,0.1-0.1,0.2-0.2,0.2h-0.5 c-0.1,0-0.2-0.1-0.1-0.2l0.9-5.2c0-0.1,0.1-0.2,0.2-0.2h0.5c0.2,0,0.2,0.1,0.2,0.2l0,0.2c0.5-0.3,1-0.5,1.5-0.5 c0.4,0,0.8,0.2,1,0.5c0.6-0.4,1.1-0.5,1.7-0.5c1,0,1.5,0.6,1.5,1.5C206,16.6,206,16.7,205.9,16.9z"></path> <path class="st0" d="M132.4,25.4c0.1,0,0.2,0.1,0.2,0.2l-1.3,7.2c0,0.1-0.1,0.2-0.2,0.2h-0.6c-0.1,0-0.2-0.1-0.1-0.2l1.3-7.2 c0-0.1,0.1-0.2,0.2-0.2H132.4z"></path> <path class="st0" d="M137.5,29.4l-0.6,3.4c0,0.1-0.1,0.2-0.2,0.2h-0.5c-0.1,0-0.2-0.1-0.2-0.2l0.6-3.4c0-0.2,0.1-0.4,0.1-0.6 c0-0.5-0.2-0.8-1-0.8c-0.4,0-0.8,0.1-1.4,0.4l-0.8,4.3c0,0.1-0.1,0.2-0.2,0.2h-0.5c-0.1,0-0.2-0.1-0.2-0.2l0.9-5.2 c0-0.1,0.1-0.2,0.3-0.2h0.4c0.2,0,0.2,0.1,0.2,0.2l0,0.2c0.5-0.3,1-0.5,1.6-0.5c1.1,0,1.5,0.7,1.5,1.6 C137.6,29,137.5,29.2,137.5,29.4z"></path> <path class="st0" d="M142.8,25.3h0.5c0.1,0,0.2,0.1,0.1,0.2l-1.3,7.2c0,0.1-0.1,0.2-0.3,0.2c-0.7,0.1-1.3,0.2-1.9,0.2 c-1.3,0-1.9-0.8-1.9-1.9c0-0.2,0-0.4,0.1-0.6l0.1-0.7c0.3-1.8,1.2-2.5,2.7-2.5c0.3,0,0.8,0,1.2,0.1l0.3-1.9 C142.6,25.3,142.7,25.3,142.8,25.3z M140.9,28c-1,0-1.5,0.7-1.6,1.7l-0.1,0.7c0,0.2-0.1,0.5-0.1,0.7c0,0.7,0.3,1.1,1.1,1.1 c0.3,0,0.9,0,1.2-0.1l0.7-4.1C141.8,28.1,141.3,28,140.9,28z"></path> <path class="st0" d="M148.4,27.3c0.1,0,0.2,0.1,0.2,0.2l-0.9,5.2c0,0.1-0.1,0.2-0.2,0.2h-0.5c-0.1,0-0.2-0.1-0.2-0.2l0-0.2 c-0.6,0.3-1.1,0.5-1.7,0.5c-0.9,0-1.5-0.5-1.5-1.6c0-0.2,0-0.4,0.1-0.6l0.6-3.3c0-0.2,0.1-0.2,0.2-0.2h0.5c0.1,0,0.2,0.1,0.2,0.2 l-0.6,3.4c0,0.2-0.1,0.4-0.1,0.6c0,0.6,0.3,0.8,1,0.8c0.4,0,0.9-0.1,1.5-0.4l0.8-4.3c0-0.1,0.1-0.2,0.2-0.2H148.4z"></path> <path class="st0" d="M152.9,27.4c0.2,0,0.2,0.1,0.2,0.2l-0.1,0.3c0,0.1-0.1,0.2-0.2,0.2c-0.3,0-0.9-0.1-1.5-0.1 c-0.5,0-1.1,0.1-1.1,0.7c0,0.3,0.2,0.5,0.6,0.7l0.9,0.6c0.7,0.5,0.9,0.8,0.9,1.4c0,1.2-1.1,1.6-2.2,1.6c-0.4,0-1.1,0-1.6-0.2 c-0.1,0-0.2-0.1-0.2-0.2l0.1-0.4c0-0.1,0.1-0.2,0.3-0.2c0.5,0.1,1.2,0.1,1.6,0.1c0.6,0,1.2-0.2,1.2-0.9c0-0.2-0.1-0.4-0.6-0.7 l-0.9-0.6c-0.6-0.4-0.9-0.8-0.9-1.3c0-1.1,1.1-1.5,2.1-1.5C152.2,27.3,152.5,27.3,152.9,27.4z"></path> <path class="st0" d="M156.7,27.3c0.1,0,0.2,0.1,0.2,0.2l-0.1,0.3c0,0.2-0.1,0.2-0.2,0.2h-1.1l-0.6,3.6c0,0.1,0,0.2,0,0.3 c0,0.3,0.1,0.3,0.5,0.3h0.6c0.1,0,0.2,0,0.1,0.1l-0.1,0.4c0,0.1-0.1,0.2-0.2,0.2c-0.2,0-0.5,0.1-0.6,0.1c-0.7,0-1.2-0.3-1.2-1 c0-0.1,0-0.2,0-0.4l0.6-3.6l-1-0.1c-0.1,0-0.2-0.1-0.2-0.2l0.1-0.3c0-0.1,0.1-0.2,0.2-0.2h1l0.2-1c0-0.1,0.1-0.2,0.2-0.2l0.5-0.1 c0.1,0,0.2,0.1,0.2,0.2l-0.2,1.1H156.7z"></path> <path class="st0" d="M157.6,32.8c0,0.1-0.1,0.2-0.2,0.2h-0.5c-0.1,0-0.2-0.1-0.2-0.2l0.9-5.2c0-0.1,0.1-0.2,0.2-0.2h0.5 c0.1,0,0.2,0.1,0.2,0.2l0,0.2c0.6-0.4,1-0.5,1.5-0.5h0c0.2,0,0.2,0.1,0.2,0.2l-0.1,0.4c0,0.1-0.1,0.2-0.2,0.2h0 c-0.6,0-1,0.1-1.5,0.4L157.6,32.8z"></path> <path class="st0" d="M161.7,27.3c0.1,0,0.2,0,0.2,0.2l-0.9,5.2c0,0.1-0.1,0.2-0.2,0.2h-0.5c-0.1,0-0.2-0.1-0.2-0.2l0.9-5.2 c0-0.2,0.1-0.2,0.2-0.2H161.7z M162.1,25.2c0.1,0,0.2,0.1,0.2,0.2l-0.1,0.8c0,0.1-0.1,0.2-0.2,0.2h-0.5c-0.2,0-0.2-0.1-0.2-0.2 l0.1-0.8c0-0.1,0.1-0.2,0.2-0.2H162.1z"></path> <path class="st0" d="M166.9,27.5c0.2,0,0.2,0.1,0.2,0.2l-0.9,5c0,0.1-0.1,0.2-0.2,0.2h-0.4c-0.2,0-0.2-0.1-0.2-0.2l0.1-0.3 c-0.6,0.4-1,0.6-1.6,0.6c-0.9,0-1.6-0.6-1.6-1.8c0-0.2,0-0.4,0.1-0.6l0.2-1c0.3-1.8,1.4-2.3,2.7-2.3 C165.7,27.3,166.4,27.4,166.9,27.5z M165.1,28c-1.1,0-1.6,0.6-1.8,1.7l-0.2,1.1c0,0.2,0,0.3,0,0.5c0,0.8,0.4,1.1,0.9,1.1 c0.5,0,0.9-0.2,1.5-0.6l0.6-3.6C165.9,28.1,165.6,28,165.1,28z"></path> <path class="st0" d="M169.5,25.3c0.1,0,0.2,0.1,0.1,0.2l-1.3,7.3c0,0.1-0.1,0.2-0.2,0.2h-0.5c-0.1,0-0.2-0.1-0.1-0.2l1.3-7.3 c0-0.1,0.1-0.2,0.2-0.2H169.5z"></path> </g> </g> <g> <path class="st1" d="M26.2,2.2l-1,5.4c-0.1,0.5-0.4,0.8-0.9,0.8c0,0,0,0-0.1,0c-1.7-0.1-6.6-0.6-9.8-0.6c-1.2,0-2.5,0.4-2.5,1.8 c0,0.6,0.4,1,1.9,1.9l5.3,3.1c3.1,1.8,4.3,4.2,4.3,7.3c0,8.1-6.8,11.4-14.2,11.4c-3.6,0-6.3-0.5-8.6-1.1C0.3,32.2,0,31.9,0,31.5 c0,0,0-0.1,0-0.1l0.9-5.3c0.1-0.5,0.5-0.9,1-0.9c0,0,0,0,0.1,0c1.8,0.2,6.4,0.7,8.7,0.7c1.7,0,3.2-0.6,3.2-2.6 c0-0.7-0.4-1.1-1.7-2l-5.6-3.7C4,16,2.8,13.2,2.8,10.5c0-7.8,6.1-10.2,13-10.2c3.4,0,8,0.6,9.6,1.1c0.3,0.1,0.7,0.3,0.7,0.7 C26.2,2.1,26.2,2.2,26.2,2.2z"></path> <path class="st1" d="M50.8,1.7L49.9,7c-0.1,0.5-0.6,0.9-1,0.9h-8.8c-1.6,0-2.2,0.5-2.5,2.2l-0.6,3.2h10.7c0.4,0,0.7,0.3,0.7,0.7 c0,0,0,0.1,0,0.1l-0.9,5.1c-0.1,0.5-0.5,0.9-1,0.9H35.9l-0.7,3.6c0,0.3-0.1,0.6-0.1,0.9c0,1,0.5,1.3,1.8,1.3h8.8 c0.4,0,0.7,0.3,0.7,0.7c0,0,0,0.1,0,0.1l-1,5.3c-0.1,0.5-0.4,0.8-1,0.9c-1.7,0.2-4.3,0.5-8.6,0.5c-5.1,0-9.7-1.8-9.7-7.5 c0-0.7,0.1-1.4,0.2-2.2L28.8,10c1.5-8.8,6.7-9.7,12.9-9.7c4.2,0,6.9,0.3,8.5,0.5c0.5,0,0.7,0.3,0.7,0.7 C50.8,1.6,50.8,1.6,50.8,1.7z"></path> <path class="st1" d="M81.6,1.6l-5.2,29.8c-0.2,0.9-1,1.6-1.9,1.6h-5.4c-0.8,0-1.3-0.3-1.6-1.2l-6.4-14.6C61,17,60.8,17,60.7,17 c-0.1,0-0.2,0.1-0.3,0.4l-2.6,14.8c-0.1,0.5-0.6,0.9-1,0.9h-6.5c-0.4,0-0.7-0.3-0.7-0.7c0,0,0-0.1,0-0.1l5.2-29.8 c0.2-0.9,1-1.6,1.9-1.6H62c0.8,0,1.2,0.5,1.5,1.3l6.6,15c0.1,0.3,0.2,0.4,0.3,0.4c0.1,0,0.3,0,0.3-0.4l2.7-15.4 c0.1-0.5,0.6-0.9,1-0.9h6.5c0.4,0,0.7,0.3,0.7,0.7C81.6,1.5,81.6,1.6,81.6,1.6z"></path> <path class="st1" d="M106.4,33H99c-0.4,0-0.7-0.4-0.7-0.8l-0.1-6h-7.7l-2.3,6c-0.2,0.4-0.6,0.8-1,0.8h-7.7c-0.4,0-0.6-0.2-0.6-0.6 c0-0.1,0-0.2,0.1-0.3L89.4,5.5c1.7-4.3,5.1-5.2,9.3-5.2c4.1,0,7.3,0.9,7.4,5.2l1.1,26.6v0C107.2,32.6,106.8,33,106.4,33z M97.9,8.2c0-0.4,0-0.6-0.4-0.6c-0.4,0-0.4,0.2-0.6,0.6l-4.1,11h5.2L97.9,8.2z"></path> </g> <path class="st2" d="M124.2,1.6c0.1-0.6-0.3-0.8-0.7-0.8h-7.1c-0.5,0-0.9,0.3-1,0.8L114,9.3l9.7-4.5L124.2,1.6z"></path> <path class="st1" d="M113.4,12.7L110,32.2c-0.1,0.4,0.2,0.9,0.7,0.9h7.1c0.7,0,1-0.4,1-0.9L123,8.2L113.4,12.7z"></path> </g> </svg> 