<svg width="199" height="33" viewBox="0 0 199 33" fill="none" xmlns="http://www.w3.org/2000/svg">
<path d="M134.908 0.983151C135.005 0.983151 135.101 1.07983 135.005 1.1765L134.908 1.56321C134.908 1.65989 134.812 1.75657 134.715 1.75657C134.233 1.75657 133.558 1.65989 132.98 1.65989C132.208 1.65989 131.34 1.75657 131.34 2.62666C131.34 3.11004 131.533 3.30339 132.208 3.78678L132.98 4.36684C133.944 4.9469 134.233 5.52696 134.233 6.2037C134.233 7.55717 133.076 8.33059 131.437 8.33059C130.858 8.33059 130.183 8.23391 129.797 8.23391C129.701 8.23391 129.604 8.13723 129.604 8.04056L129.701 7.65385C129.701 7.55717 129.797 7.46049 129.894 7.46049C130.376 7.46049 131.051 7.55717 131.533 7.55717C132.594 7.55717 133.269 7.17046 133.269 6.2037C133.269 5.72031 132.98 5.52696 132.305 5.04358L131.437 4.46351C130.762 3.98013 130.376 3.40007 130.376 2.72333C130.376 1.36986 131.533 0.886475 132.883 0.886475C133.558 0.886475 134.523 0.983151 134.908 0.983151Z" fill="white"/>
<path d="M139.633 5.23698L139.537 5.62369C139.537 5.72037 139.441 5.81705 139.344 5.81705H135.969V5.91372C135.969 6.10708 135.873 6.30043 135.873 6.49378C135.873 7.2672 136.355 7.55723 137.126 7.55723C137.705 7.55723 138.38 7.46055 138.862 7.46055C139.055 7.46055 139.055 7.46055 139.055 7.55723L138.958 7.84726C138.958 7.94393 138.862 8.04061 138.765 8.04061C138.187 8.13729 137.705 8.23396 137.03 8.23396C136.065 8.23396 135.101 7.75058 135.101 6.39711C135.101 6.20375 135.101 6.0104 135.197 5.81705L135.294 5.14031C135.583 3.59348 136.548 2.72339 137.898 2.72339C139.151 2.72339 139.73 3.4968 139.73 4.56025C139.633 4.85028 139.633 5.04363 139.633 5.23698ZM137.705 3.59348C136.837 3.59348 136.258 4.27022 136.065 5.14031V5.23698H138.669V5.14031C138.669 4.94695 138.765 4.7536 138.765 4.56025C138.765 3.88351 138.38 3.59348 137.705 3.59348Z" fill="white"/>
<path d="M140.887 8.13729C140.887 8.23397 140.79 8.33064 140.694 8.33064H140.212C140.115 8.33064 140.019 8.23397 140.019 8.13729L140.887 3.1101C140.887 3.01342 140.983 2.91675 141.08 2.91675H141.562C141.658 2.91675 141.755 3.01342 141.755 3.1101V3.30345C142.333 2.91675 142.719 2.82007 143.201 2.82007C143.394 2.82007 143.394 2.91675 143.394 3.01342L143.298 3.40013C143.298 3.49681 143.201 3.59348 143.105 3.59348C142.526 3.59348 142.141 3.69016 141.658 3.98019L140.887 8.13729Z" fill="white"/>
<path d="M148.216 3.1101L146.191 7.65391C145.902 8.23397 145.516 8.42732 145.13 8.42732C144.744 8.42732 144.359 8.23397 144.262 7.65391L143.684 3.1101C143.684 2.91675 143.78 2.91675 143.876 2.91675H144.359C144.455 2.91675 144.551 3.01342 144.551 3.1101L144.937 7.36388C144.937 7.65391 145.034 7.65391 145.13 7.65391C145.227 7.65391 145.323 7.55723 145.419 7.36388L147.252 3.1101C147.348 3.01342 147.348 2.91675 147.541 2.91675H148.119C148.216 2.91675 148.216 3.01342 148.216 3.01342V3.1101Z" fill="white"/>
<path d="M149.759 2.91668C149.855 2.91668 149.952 2.91668 149.952 3.11004L149.084 8.13723C149.084 8.23391 148.987 8.33058 148.891 8.33058H148.409C148.312 8.33058 148.216 8.23391 148.216 8.13723L149.084 3.11004C149.084 2.91668 149.18 2.91668 149.277 2.91668H149.759ZM150.144 0.789795C150.241 0.789795 150.337 0.886472 150.337 0.983148L150.241 1.75656C150.241 1.85324 150.144 1.94992 150.048 1.94992H149.469C149.277 1.94992 149.277 1.85324 149.277 1.75656L149.373 0.983148C149.373 0.886472 149.469 0.789795 149.566 0.789795H150.144Z" fill="white"/>
<path d="M154.484 3.1101L154.388 3.4968C154.388 3.59348 154.291 3.69016 154.195 3.69016C153.809 3.59348 153.52 3.59348 152.941 3.59348C152.17 3.59348 151.591 4.17354 151.398 5.23698L151.302 6.0104C151.302 6.20375 151.205 6.39711 151.205 6.59046C151.205 7.36387 151.591 7.6539 152.17 7.6539C152.652 7.6539 152.941 7.6539 153.423 7.55723C153.52 7.55723 153.616 7.55723 153.616 7.6539L153.52 8.04061C153.52 8.13729 153.423 8.23396 153.327 8.23396C153.038 8.33064 152.555 8.33064 152.073 8.33064C150.916 8.33064 150.337 7.55723 150.337 6.49378C150.337 6.30043 150.337 6.10708 150.434 5.91372L150.53 5.14031C150.82 3.4968 151.687 2.72339 153.037 2.72339C153.52 2.72339 153.905 2.82007 154.291 2.82007C154.484 2.91674 154.484 3.01342 154.484 3.1101ZM152.652 8.81402L151.302 10.0708C151.205 10.1675 151.205 10.2642 151.012 10.2642H150.434C150.337 10.2642 150.337 10.2642 150.337 10.1675C150.337 10.1675 150.337 10.0708 150.434 10.0708L151.591 8.81402C151.687 8.71735 151.784 8.62067 151.88 8.62067H152.555C152.652 8.62067 152.652 8.62067 152.652 8.81402C152.652 8.71735 152.652 8.71735 152.652 8.81402Z" fill="white"/>
<path d="M158.823 5.23699L158.727 6.0104C158.438 7.55723 157.666 8.42732 156.123 8.42732C154.966 8.42732 154.291 7.65391 154.291 6.59046C154.291 6.39711 154.291 6.20375 154.387 6.0104L154.484 5.23699C154.773 3.59348 155.641 2.82007 157.088 2.82007C158.341 2.82007 158.92 3.59348 158.92 4.65693C158.92 4.85028 158.92 5.04363 158.823 5.23699ZM156.991 3.59348C156.123 3.59348 155.545 4.27022 155.352 5.23699L155.159 6.0104C155.159 6.20375 155.062 6.39711 155.062 6.59046C155.062 7.2672 155.352 7.65391 156.123 7.65391C156.991 7.65391 157.57 6.97717 157.763 6.0104L157.859 5.23699C157.859 5.04363 157.955 4.85028 157.955 4.65693C158.052 3.98019 157.763 3.59348 156.991 3.59348Z" fill="white"/>
<path d="M167.309 1.17651C167.309 1.07983 167.406 0.983154 167.502 0.983154H167.984C168.081 0.983154 168.177 1.07983 168.177 1.17651L166.924 8.04056C166.924 8.23391 166.827 8.33059 166.634 8.33059H166.056C165.863 8.33059 165.766 8.23391 165.766 8.13723L163.645 2.33663L162.584 8.13723C162.584 8.23391 162.488 8.33059 162.391 8.33059H161.813C161.716 8.33059 161.716 8.33059 161.716 8.23391L162.97 1.27318C162.97 1.07983 163.066 0.983154 163.259 0.983154H163.741C164.031 0.983154 164.031 1.07983 164.127 1.17651L166.152 6.88044L167.309 1.17651Z" fill="white"/>
<path d="M172.71 3.01342C172.902 3.01342 172.902 3.1101 172.902 3.20678L172.035 8.04061C172.035 8.13729 171.938 8.23397 171.842 8.23397H171.456C171.263 8.23397 171.263 8.13729 171.263 8.04061L171.359 7.75058C170.781 8.13729 170.395 8.33064 169.817 8.33064C168.949 8.33064 168.274 7.75058 168.274 6.59046C168.274 6.39711 168.274 6.20376 168.37 6.0104L168.563 5.04363C168.852 3.30345 169.913 2.82007 171.167 2.82007C171.552 2.82007 172.227 2.91675 172.71 3.01342ZM170.974 3.49681C169.913 3.49681 169.431 4.07687 169.238 5.14031L169.045 6.20376C169.045 6.39711 169.045 6.49379 169.045 6.68714C169.045 7.46055 169.431 7.75058 169.913 7.75058C170.395 7.75058 170.781 7.55723 171.359 7.17052L171.938 3.69016C171.649 3.59348 171.36 3.49681 170.974 3.49681Z" fill="white"/>
<path d="M174.252 5.23698L174.156 6.0104C174.156 6.20375 174.06 6.39711 174.06 6.59046C174.06 7.36387 174.445 7.6539 175.024 7.6539C175.506 7.6539 175.795 7.6539 176.277 7.55723C176.47 7.55723 176.47 7.55723 176.47 7.75058V8.04061C176.47 8.13729 176.374 8.23396 176.277 8.23396C175.988 8.33064 175.506 8.33064 175.024 8.33064C173.867 8.33064 173.288 7.55723 173.288 6.49378C173.288 6.30043 173.288 6.10708 173.385 5.91372L173.481 5.14031C173.77 3.4968 174.638 2.72339 175.988 2.72339C176.47 2.72339 176.856 2.82007 177.242 2.82007C177.435 2.82007 177.435 2.91674 177.435 3.01342L177.338 3.40013C177.338 3.4968 177.242 3.59348 177.145 3.59348C176.76 3.4968 176.47 3.4968 175.892 3.4968C175.024 3.59348 174.445 4.17354 174.252 5.23698Z" fill="white"/>
<path d="M178.978 2.91668C179.074 2.91668 179.171 2.91668 179.171 3.11004L178.303 8.13723C178.303 8.23391 178.206 8.33058 178.11 8.33058H177.628C177.531 8.33058 177.435 8.23391 177.435 8.13723L178.303 3.11004C178.303 2.91668 178.399 2.91668 178.496 2.91668H178.978ZM179.363 0.789795C179.46 0.789795 179.556 0.886472 179.556 0.983148L179.46 1.75656C179.46 1.85324 179.363 1.94992 179.267 1.94992H178.785C178.592 1.94992 178.592 1.85324 178.592 1.75656L178.688 0.983148C178.688 0.886472 178.785 0.789795 178.881 0.789795H179.363Z" fill="white"/>
<path d="M184.185 5.23699L184.088 6.0104C183.799 7.55723 183.028 8.42732 181.485 8.42732C180.328 8.42732 179.653 7.65391 179.653 6.59046C179.653 6.39711 179.653 6.20375 179.749 6.0104L179.845 5.23699C180.135 3.59348 181.003 2.82007 182.449 2.82007C183.703 2.82007 184.281 3.59348 184.281 4.65693C184.281 4.85028 184.281 5.04363 184.185 5.23699ZM182.353 3.59348C181.485 3.59348 180.906 4.27022 180.713 5.23699L180.52 6.0104C180.52 6.20375 180.424 6.39711 180.424 6.59046C180.424 7.2672 180.713 7.65391 181.485 7.65391C182.353 7.65391 182.931 6.97717 183.124 6.0104L183.221 5.23699C183.221 5.04363 183.317 4.85028 183.317 4.65693C183.413 3.98019 183.124 3.59348 182.353 3.59348Z" fill="white"/>
<path d="M189.392 4.85028L188.814 8.13729C188.814 8.23396 188.717 8.33064 188.621 8.33064H188.042C187.946 8.33064 187.849 8.23396 187.849 8.13729L188.428 4.85028C188.428 4.65692 188.524 4.46357 188.524 4.27022C188.524 3.78683 188.331 3.4968 187.56 3.4968C187.174 3.4968 186.789 3.59348 186.21 3.88351L185.438 8.04061C185.438 8.13729 185.342 8.23396 185.246 8.23396H184.763C184.667 8.23396 184.571 8.13729 184.571 8.04061L185.438 3.01342C185.438 2.91674 185.535 2.82007 185.728 2.82007H186.113C186.306 2.82007 186.306 2.91674 186.306 3.01342V3.20677C186.788 2.91674 187.271 2.72339 187.849 2.72339C188.91 2.72339 189.296 3.40013 189.296 4.27022C189.392 4.46357 189.392 4.65692 189.392 4.85028Z" fill="white"/>
<path d="M194.407 3.01342C194.6 3.01342 194.6 3.1101 194.6 3.20678L193.732 8.04061C193.732 8.13729 193.635 8.23397 193.539 8.23397H193.153C192.96 8.23397 192.96 8.13729 192.96 8.04061L193.057 7.75058C192.478 8.13729 192.092 8.33064 191.514 8.33064C190.646 8.33064 189.971 7.75058 189.971 6.59046C189.971 6.39711 189.971 6.20376 190.067 6.0104L190.26 5.04363C190.55 3.30345 191.61 2.82007 192.864 2.82007C193.25 2.82007 193.925 2.91675 194.407 3.01342ZM192.671 3.49681C191.61 3.49681 191.128 4.07687 190.935 5.14031L190.742 6.20376C190.742 6.39711 190.742 6.49379 190.742 6.68714C190.742 7.46055 191.128 7.75058 191.61 7.75058C192.092 7.75058 192.478 7.55723 193.057 7.17052L193.635 3.69016C193.346 3.59348 193.057 3.49681 192.671 3.49681Z" fill="white"/>
<path d="M196.914 0.886475C197.01 0.886475 197.107 0.983151 197.01 1.07983L195.757 8.13723C195.757 8.23391 195.66 8.33059 195.564 8.33059H195.082C194.985 8.33059 194.889 8.23391 194.985 8.13723L196.239 1.07983C196.239 0.983151 196.335 0.886475 196.432 0.886475H196.914Z" fill="white"/>
<path d="M132.305 12.7776H132.787C132.883 12.7776 132.98 12.8743 132.883 12.9709L131.629 19.9317C131.629 20.0283 131.533 20.125 131.34 20.125C130.665 20.2217 130.087 20.3184 129.508 20.3184C128.254 20.3184 127.676 19.545 127.676 18.4815C127.676 18.2882 127.676 18.0948 127.772 17.9015L127.869 17.2247C128.158 15.4845 129.026 14.8078 130.472 14.8078C130.762 14.8078 131.244 14.8078 131.629 14.9045L131.919 13.0676C132.112 12.7776 132.208 12.7776 132.305 12.7776ZM130.472 15.4845C129.508 15.4845 129.026 16.1613 128.929 17.128L128.833 17.8048C128.833 17.9981 128.737 18.2882 128.737 18.4815C128.737 19.1583 129.026 19.545 129.797 19.545C130.087 19.545 130.665 19.545 130.954 19.4483L131.629 15.4845C131.34 15.4845 130.858 15.4845 130.472 15.4845Z" fill="white"/>
<path d="M137.512 17.1283L137.415 17.515C137.415 17.6117 137.319 17.7084 137.223 17.7084H133.847V17.8051C133.847 17.9984 133.751 18.1918 133.751 18.3851C133.751 19.1586 134.233 19.4486 135.005 19.4486C135.583 19.4486 136.258 19.3519 136.74 19.3519C136.933 19.3519 136.933 19.3519 136.933 19.4486L136.837 19.7386C136.837 19.8353 136.74 19.932 136.644 19.932C136.065 20.0286 135.583 20.1253 134.908 20.1253C133.944 20.1253 132.979 19.6419 132.979 18.2885C132.979 18.0951 132.979 17.9018 133.076 17.7084L133.172 17.0317C133.462 15.4848 134.426 14.6147 135.776 14.6147C137.03 14.6147 137.608 15.3882 137.608 16.4516C137.608 16.7416 137.608 16.935 137.512 17.1283ZM135.68 15.4848C134.812 15.4848 134.233 16.1616 134.04 17.0317V17.1283H136.644V17.0317C136.644 16.8383 136.74 16.645 136.74 16.4516C136.74 15.7749 136.355 15.4848 135.68 15.4848Z" fill="white"/>
<path d="M145.516 20.2217H144.937C144.841 20.2217 144.841 20.125 144.841 20.0283L144.551 17.7081H141.948L140.887 20.0283C140.887 20.125 140.79 20.2217 140.694 20.2217H140.115C140.019 20.2217 140.019 20.125 140.019 20.125V20.0283L143.008 13.551C143.298 12.9709 143.683 12.7776 144.166 12.7776C144.551 12.7776 144.937 12.8743 145.033 13.551L145.709 20.0283C145.709 20.125 145.612 20.2217 145.516 20.2217ZM144.166 13.7444C144.166 13.6477 144.069 13.551 143.973 13.551C143.876 13.551 143.78 13.6477 143.78 13.7444L142.333 17.0314H144.551L144.166 13.7444Z" fill="white"/>
<path d="M151.012 17.1281L150.916 17.8048C150.627 19.4483 149.855 20.2218 148.312 20.2218C148.023 20.2218 147.541 20.2218 147.155 20.1251L146.866 21.9619C146.866 22.0586 146.769 22.1553 146.673 22.1553H146.191C146.094 22.1553 146.094 22.0586 146.094 21.9619L147.251 15.1946C147.251 15.0979 147.348 15.0012 147.541 15.0012C148.119 14.9045 148.794 14.8079 149.373 14.8079C150.627 14.8079 151.205 15.5813 151.205 16.6447C151.109 16.7414 151.109 16.9347 151.012 17.1281ZM149.18 15.3879C148.794 15.3879 148.312 15.4846 148.023 15.4846L147.348 19.4483C147.637 19.545 148.216 19.545 148.505 19.545C149.373 19.545 149.855 18.8683 150.048 17.8048L150.144 17.1281C150.241 16.8381 150.241 16.6447 150.241 16.4514C150.241 15.7746 149.952 15.3879 149.18 15.3879Z" fill="white"/>
<path d="M152.363 20.0286C152.363 20.1253 152.266 20.222 152.17 20.222H151.687C151.591 20.222 151.495 20.1253 151.495 20.0286L152.363 15.0015C152.363 14.9048 152.459 14.8081 152.555 14.8081H153.038C153.134 14.8081 153.23 14.9048 153.23 15.0015V15.1948C153.809 14.8081 154.195 14.7114 154.677 14.7114C154.87 14.7114 154.87 14.8081 154.87 14.9048L154.773 15.2915C154.773 15.3882 154.677 15.4848 154.58 15.4848C154.002 15.4848 153.616 15.5815 153.134 15.8715L152.363 20.0286Z" fill="white"/>
<path d="M159.016 17.1283L158.92 17.515C158.92 17.6117 158.823 17.7084 158.727 17.7084H155.352V17.8051C155.352 17.9984 155.255 18.1918 155.255 18.3851C155.255 19.1586 155.738 19.4486 156.509 19.4486C157.088 19.4486 157.763 19.3519 158.245 19.3519C158.438 19.3519 158.438 19.3519 158.438 19.4486L158.341 19.7386C158.341 19.8353 158.245 19.932 158.148 19.932C157.57 20.0286 157.088 20.1253 156.413 20.1253C155.448 20.1253 154.484 19.6419 154.484 18.2885C154.484 18.0951 154.484 17.9018 154.58 17.7084L154.677 17.0317C154.966 15.4848 155.93 14.6147 157.28 14.6147C158.534 14.6147 159.113 15.3882 159.113 16.4516C159.113 16.7416 159.113 16.935 159.016 17.1283ZM157.184 15.4848C156.316 15.4848 155.738 16.1616 155.545 17.0317V17.1283H158.148V17.0317C158.148 16.8383 158.245 16.645 158.245 16.4516C158.245 15.7749 157.859 15.4848 157.184 15.4848Z" fill="white"/>
<path d="M164.223 16.7416L163.645 20.0286C163.645 20.1253 163.548 20.222 163.452 20.222H162.97C162.873 20.222 162.777 20.1253 162.777 20.0286L163.356 16.7416C163.356 16.5483 163.452 16.3549 163.452 16.1616C163.452 15.6782 163.259 15.3882 162.488 15.3882C162.102 15.3882 161.716 15.4848 161.138 15.7749L160.366 19.932C160.366 20.0286 160.27 20.1253 160.173 20.1253H159.691C159.595 20.1253 159.498 20.0286 159.498 19.932L160.366 14.9048C160.366 14.8081 160.463 14.7114 160.655 14.7114H161.041C161.234 14.7114 161.234 14.8081 161.234 14.9048V15.0981C161.716 14.8081 162.198 14.6147 162.777 14.6147C163.838 14.6147 164.223 15.2915 164.223 16.1616C164.223 16.3549 164.223 16.5483 164.223 16.7416Z" fill="white"/>
<path d="M169.335 12.7776H169.817C169.913 12.7776 170.01 12.8743 169.913 12.9709L168.66 19.9317C168.66 20.0283 168.563 20.125 168.37 20.125C167.695 20.2217 167.117 20.3184 166.538 20.3184C165.284 20.3184 164.706 19.545 164.706 18.4815C164.706 18.2882 164.706 18.0948 164.802 17.9015L164.899 17.2247C165.188 15.4845 166.056 14.8078 167.502 14.8078C167.792 14.8078 168.274 14.8078 168.66 14.9045L168.949 13.0676C169.142 12.7776 169.142 12.7776 169.335 12.7776ZM167.502 15.4845C166.538 15.4845 166.056 16.1613 165.959 17.128L165.863 17.8048C165.863 17.9981 165.767 18.2882 165.767 18.4815C165.767 19.1583 166.056 19.545 166.827 19.545C167.117 19.545 167.695 19.545 167.984 19.4483L168.66 15.4845C168.274 15.4845 167.792 15.4845 167.502 15.4845Z" fill="white"/>
<path d="M171.456 14.7111C171.552 14.7111 171.649 14.7111 171.649 14.9045L170.781 19.9317C170.781 20.0283 170.685 20.125 170.588 20.125H170.106C170.01 20.125 169.913 20.0283 169.913 19.9317L170.781 14.9045C170.781 14.7111 170.877 14.7111 170.974 14.7111H171.456ZM171.842 12.6809C171.938 12.6809 172.035 12.7776 172.035 12.8743L171.938 13.6477C171.938 13.7444 171.842 13.841 171.745 13.841H171.263C171.07 13.841 171.07 13.7444 171.07 13.6477L171.167 12.8743C171.167 12.7776 171.263 12.6809 171.36 12.6809H171.842Z" fill="white"/>
<path d="M175.892 16.0649L172.806 19.2552C172.709 19.3519 172.709 19.3519 172.709 19.3519C172.709 19.3519 172.709 19.4486 172.806 19.4486H175.313C175.506 19.4486 175.506 19.5453 175.506 19.6419L175.41 19.932C175.41 20.1253 175.313 20.1253 175.217 20.1253H172.709C172.131 20.1253 171.842 19.8353 171.842 19.4486C171.842 19.2552 171.938 19.0619 172.034 18.8685L175.217 15.5815C175.313 15.4848 175.313 15.4848 175.313 15.4848C175.313 15.4848 175.313 15.3882 175.217 15.3882H172.806C172.709 15.3882 172.613 15.2915 172.613 15.1948L172.709 14.9048C172.709 14.7114 172.806 14.7114 172.902 14.7114H175.41C175.988 14.7114 176.181 15.0015 176.181 15.3882C176.085 15.6782 176.085 15.8715 175.892 16.0649Z" fill="white"/>
<path d="M180.906 14.9048C181.099 14.9048 181.099 15.0015 181.099 15.0981L180.231 19.932C180.231 20.0286 180.135 20.1253 180.038 20.1253H179.653C179.46 20.1253 179.46 20.0286 179.46 19.932L179.556 19.6419C178.978 20.0286 178.592 20.222 178.013 20.222C177.145 20.222 176.47 19.6419 176.47 18.4818C176.47 18.2885 176.47 18.0951 176.567 17.9018L176.76 16.935C177.049 15.1948 178.11 14.7114 179.363 14.7114C179.749 14.7114 180.328 14.8081 180.906 14.9048ZM179.171 15.3882C178.11 15.3882 177.628 15.9682 177.435 17.0317L177.242 18.0951C177.242 18.2885 177.242 18.3851 177.242 18.5785C177.242 19.3519 177.628 19.6419 178.11 19.6419C178.592 19.6419 178.978 19.4486 179.556 19.0619L180.135 15.5815C179.846 15.4848 179.556 15.3882 179.171 15.3882Z" fill="white"/>
<path d="M181.581 17.1283C181.871 15.3882 182.738 14.7114 184.185 14.7114C184.764 14.7114 185.439 14.8081 185.921 14.9048C186.114 14.9048 186.114 15.0015 186.114 15.0981L185.246 20.1253C184.956 21.6722 184.281 22.0589 182.931 22.0589C182.16 22.0589 181.581 21.9622 181.292 21.8655C181.099 21.8655 181.099 21.7688 181.099 21.6722L181.196 21.3821C181.196 21.2854 181.292 21.1888 181.388 21.1888C181.678 21.1888 182.546 21.2854 183.028 21.2854C183.896 21.2854 184.185 20.9954 184.378 20.1253V20.0286C184.089 20.1253 183.51 20.1253 183.221 20.1253C182.16 20.1253 181.388 19.6419 181.388 18.3851C181.388 18.1918 181.388 17.9984 181.485 17.7084L181.581 17.1283ZM184.089 15.3882C183.124 15.3882 182.642 15.9682 182.449 17.1283L182.353 17.8051C182.256 18.0951 182.256 18.2885 182.256 18.4818C182.256 19.2552 182.642 19.4486 183.317 19.4486C183.606 19.4486 184.089 19.4486 184.474 19.3519L185.149 15.4848C184.86 15.4848 184.474 15.3882 184.089 15.3882Z" fill="white"/>
<path d="M191.032 17.1283L190.935 17.515C190.935 17.6117 190.839 17.7084 190.742 17.7084H187.367V17.8051C187.367 17.9984 187.271 18.1918 187.271 18.3851C187.271 19.1586 187.753 19.4486 188.524 19.4486C189.103 19.4486 189.778 19.3519 190.26 19.3519C190.453 19.3519 190.453 19.3519 190.453 19.4486L190.357 19.7386C190.357 19.8353 190.26 19.932 190.164 19.932C189.585 20.0286 189.103 20.1253 188.428 20.1253C187.464 20.1253 186.499 19.6419 186.499 18.2885C186.499 18.0951 186.499 17.9018 186.596 17.7084L186.692 17.0317C186.981 15.4848 187.946 14.6147 189.296 14.6147C190.549 14.6147 191.128 15.3882 191.128 16.4516C191.128 16.7416 191.128 16.935 191.032 17.1283ZM189.199 15.4848C188.331 15.4848 187.753 16.1616 187.56 17.0317V17.1283H190.164V17.0317C190.164 16.8383 190.26 16.645 190.26 16.4516C190.26 15.7749 189.874 15.4848 189.199 15.4848Z" fill="white"/>
<path d="M198.553 16.5483L197.975 20.0286C197.975 20.1253 197.878 20.222 197.782 20.222H197.3C197.203 20.222 197.107 20.1253 197.107 20.0286L197.685 16.5483C197.685 16.3549 197.685 16.2583 197.685 16.1616C197.685 15.6782 197.396 15.4848 196.914 15.4848C196.625 15.4848 196.143 15.5815 195.66 15.7749C195.66 15.9682 195.66 16.3549 195.66 16.5483L195.082 20.0286C195.082 20.1253 194.985 20.222 194.889 20.222H194.407C194.31 20.222 194.214 20.1253 194.31 20.0286L194.889 16.5483C194.889 16.3549 194.985 16.1616 194.985 15.9682C194.985 15.5815 194.696 15.3882 194.407 15.3882C193.925 15.3882 193.346 15.6782 193.057 15.7749L192.285 19.932C192.285 20.0286 192.189 20.1253 192.092 20.1253H191.61C191.514 20.1253 191.417 20.0286 191.514 19.932L192.382 14.9048C192.382 14.8081 192.478 14.7114 192.575 14.7114H193.057C193.25 14.7114 193.25 14.8081 193.25 14.9048V15.0981C193.732 14.8081 194.214 14.6147 194.696 14.6147C195.082 14.6147 195.468 14.8081 195.66 15.0981C196.239 14.7114 196.721 14.6147 197.3 14.6147C198.264 14.6147 198.746 15.1948 198.746 16.0649C198.65 16.2583 198.65 16.3549 198.553 16.5483Z" fill="white"/>
<path d="M127.676 24.7656C127.772 24.7656 127.869 24.8623 127.869 24.959L126.615 31.9197C126.615 32.0164 126.519 32.1131 126.422 32.1131H125.844C125.747 32.1131 125.651 32.0164 125.747 31.9197L127.001 24.959C127.001 24.8623 127.097 24.7656 127.194 24.7656H127.676Z" fill="white"/>
<path d="M132.594 28.6327L132.015 31.9198C132.015 32.0164 131.919 32.1131 131.822 32.1131H131.34C131.244 32.1131 131.147 32.0164 131.147 31.9198L131.726 28.6327C131.726 28.4394 131.822 28.246 131.822 28.0527C131.822 27.5693 131.629 27.2793 130.858 27.2793C130.472 27.2793 130.087 27.3759 129.508 27.666L128.737 31.8231C128.737 31.9198 128.64 32.0164 128.544 32.0164H128.062C127.965 32.0164 127.869 31.9198 127.869 31.8231L128.737 26.7959C128.737 26.6992 128.833 26.6025 129.026 26.6025H129.412C129.604 26.6025 129.604 26.6992 129.604 26.7959V26.9892C130.087 26.6992 130.569 26.5059 131.147 26.5059C132.208 26.5059 132.594 27.1826 132.594 28.0527C132.69 28.246 132.594 28.4394 132.594 28.6327Z" fill="white"/>
<path d="M137.705 24.6689H138.187C138.283 24.6689 138.38 24.7656 138.283 24.8623L137.03 31.823C137.03 31.9197 136.933 32.0164 136.741 32.0164C136.066 32.1131 135.487 32.2097 134.908 32.2097C133.655 32.2097 133.076 31.4363 133.076 30.3729C133.076 30.1795 133.076 29.9862 133.173 29.7928L133.269 29.1161C133.558 27.3759 134.426 26.6992 135.873 26.6992C136.162 26.6992 136.644 26.6992 137.03 26.7958L137.319 24.959C137.512 24.6689 137.608 24.6689 137.705 24.6689ZM135.873 27.2792C134.908 27.2792 134.426 27.956 134.33 28.9227L134.233 29.5995C134.233 29.7928 134.137 30.0828 134.137 30.2762C134.137 30.9529 134.426 31.3396 135.198 31.3396C135.487 31.3396 136.066 31.3396 136.355 31.243L137.03 27.2792C136.741 27.3759 136.258 27.2792 135.873 27.2792Z" fill="white"/>
<path d="M143.105 26.6025C143.201 26.6025 143.298 26.6992 143.298 26.7959L142.43 31.8231C142.43 31.9198 142.334 32.0164 142.237 32.0164H141.755C141.659 32.0164 141.562 31.9198 141.562 31.8231V31.6297C140.984 31.9198 140.501 32.1131 139.923 32.1131C139.055 32.1131 138.476 31.6297 138.476 30.5663C138.476 30.3729 138.476 30.1796 138.573 29.9862L139.151 26.7959C139.151 26.6025 139.248 26.6025 139.344 26.6025H139.826C139.923 26.6025 140.019 26.6992 140.019 26.7959L139.441 30.0829C139.441 30.2763 139.344 30.4696 139.344 30.663C139.344 31.243 139.633 31.4364 140.309 31.4364C140.694 31.4364 141.176 31.3397 141.755 31.0497L142.526 26.8926C142.526 26.7959 142.623 26.6992 142.719 26.6992H143.105V26.6025Z" fill="white"/>
<path d="M147.444 26.6992C147.637 26.6992 147.637 26.7959 147.637 26.8926L147.541 27.1826C147.541 27.2793 147.444 27.3759 147.348 27.3759C147.059 27.3759 146.48 27.2793 145.902 27.2793C145.419 27.2793 144.841 27.3759 144.841 27.956C144.841 28.246 145.034 28.4394 145.419 28.6327L146.287 29.2128C146.962 29.6962 147.155 29.9862 147.155 30.5663C147.155 31.7264 146.094 32.1131 145.034 32.1131C144.648 32.1131 143.973 32.1131 143.491 31.9198C143.394 31.9198 143.298 31.8231 143.298 31.7264L143.394 31.3397C143.394 31.243 143.491 31.1463 143.684 31.1463C144.166 31.243 144.841 31.243 145.226 31.243C145.805 31.243 146.384 31.0497 146.384 30.3729C146.384 30.1796 146.287 29.9862 145.805 29.6962L144.937 29.1161C144.359 28.7294 144.069 28.3427 144.069 27.8593C144.069 26.7959 145.13 26.4092 146.094 26.4092C146.769 26.6025 147.059 26.6025 147.444 26.6992Z" fill="white"/>
<path d="M151.109 26.6025C151.205 26.6025 151.302 26.6992 151.302 26.7959L151.205 27.0859C151.205 27.2792 151.109 27.2792 151.012 27.2792H149.952L149.373 30.7596C149.373 30.8563 149.373 30.953 149.373 31.0496C149.373 31.3397 149.469 31.3397 149.855 31.3397H150.434C150.53 31.3397 150.627 31.3397 150.53 31.4363L150.434 31.823C150.434 31.9197 150.337 32.0164 150.241 32.0164C150.048 32.0164 149.759 32.1131 149.662 32.1131C148.987 32.1131 148.505 31.823 148.505 31.1463C148.505 31.0496 148.505 30.953 148.505 30.7596L149.084 27.2792L148.119 27.1826C148.023 27.1826 147.927 27.0859 147.927 26.9892L148.023 26.6992C148.023 26.6025 148.119 26.5058 148.216 26.5058H149.18L149.373 25.5391C149.373 25.4424 149.469 25.3457 149.566 25.3457L150.048 25.249C150.144 25.249 150.241 25.3457 150.241 25.4424L150.048 26.5058H151.109V26.6025Z" fill="white"/>
<path d="M151.977 31.9198C151.977 32.0164 151.88 32.1131 151.784 32.1131H151.302C151.205 32.1131 151.109 32.0164 151.109 31.9198L151.977 26.8926C151.977 26.7959 152.073 26.6992 152.17 26.6992H152.652C152.748 26.6992 152.845 26.7959 152.845 26.8926V27.0859C153.423 26.6992 153.809 26.6025 154.291 26.6025C154.484 26.6025 154.484 26.6992 154.484 26.7959L154.388 27.1826C154.388 27.2793 154.291 27.376 154.195 27.376C153.616 27.376 153.23 27.4726 152.748 27.7627L151.977 31.9198Z" fill="white"/>
<path d="M155.93 26.6025C156.027 26.6025 156.123 26.6025 156.123 26.7958L155.255 31.823C155.255 31.9197 155.159 32.0164 155.062 32.0164H154.58C154.484 32.0164 154.387 31.9197 154.387 31.823L155.255 26.7958C155.255 26.6025 155.352 26.6025 155.448 26.6025H155.93ZM156.316 24.5723C156.413 24.5723 156.509 24.6689 156.509 24.7656L156.413 25.539C156.413 25.6357 156.316 25.7324 156.22 25.7324H155.737C155.545 25.7324 155.545 25.6357 155.545 25.539L155.641 24.7656C155.641 24.6689 155.737 24.5723 155.834 24.5723H156.316Z" fill="white"/>
<path d="M160.945 26.7959C161.138 26.7959 161.138 26.8926 161.138 26.9892L160.27 31.8231C160.27 31.9198 160.173 32.0164 160.077 32.0164H159.691C159.498 32.0164 159.498 31.9198 159.498 31.8231L159.595 31.5331C159.016 31.9198 158.631 32.1131 158.052 32.1131C157.184 32.1131 156.509 31.5331 156.509 30.3729C156.509 30.1796 156.509 29.9862 156.605 29.7929L156.798 28.8261C157.088 27.0859 158.148 26.6025 159.402 26.6025C159.788 26.6025 160.463 26.6992 160.945 26.7959ZM159.209 27.2793C158.148 27.2793 157.666 27.8593 157.473 28.9228L157.28 29.9862C157.28 30.1796 157.28 30.2763 157.28 30.4696C157.28 31.243 157.666 31.5331 158.148 31.5331C158.631 31.5331 159.016 31.3397 159.595 30.953L160.173 27.4726C159.981 27.376 159.691 27.2793 159.209 27.2793Z" fill="white"/>
<path d="M163.452 24.6689C163.548 24.6689 163.645 24.7656 163.548 24.8623L162.295 31.9197C162.295 32.0164 162.198 32.1131 162.102 32.1131H161.62C161.523 32.1131 161.427 32.0164 161.523 31.9197L162.777 24.8623C162.777 24.7656 162.873 24.6689 162.97 24.6689H163.452Z" fill="white"/>
<path d="M25.2652 2.33686L24.3008 7.5574C24.2044 8.04078 23.9151 8.33081 23.4329 8.33081C23.4329 8.33081 23.4329 8.33081 23.3365 8.33081C21.6972 8.23414 16.972 7.75075 13.8862 7.75075C12.729 7.75075 11.4754 8.13746 11.4754 9.49094C11.4754 10.071 11.8611 10.4577 13.3076 11.3278L18.4185 14.3248C21.4079 16.065 22.5651 18.3852 22.5651 21.3822C22.5651 29.213 16.0077 32.4033 8.87173 32.4033C5.40019 32.4033 2.79652 31.9199 0.578591 31.3399C0.289296 31.3399 0 31.0498 0 30.6631V30.5665L0.867887 25.4426C0.964319 24.9592 1.35005 24.5725 1.83221 24.5725C1.83221 24.5725 1.83221 24.5725 1.92864 24.5725C3.66441 24.7659 8.10028 25.2492 10.3182 25.2492C11.9576 25.2492 13.404 24.6692 13.404 22.7356C13.404 22.0589 13.0183 21.6722 11.7647 20.8021L6.3645 17.2251C3.85728 15.6782 2.70009 12.9713 2.70009 10.361C2.70009 2.82024 8.58244 0.5 15.2362 0.5C18.5149 0.5 22.9508 1.08006 24.4937 1.56344C24.783 1.66012 25.1687 1.85347 25.1687 2.24018C25.2652 2.24018 25.2652 2.33686 25.2652 2.33686Z" fill="white"/>
<path d="M48.9874 1.85347L48.1195 6.97734C48.0231 7.46072 47.5409 7.84743 47.1552 7.84743H38.6692C37.1263 7.84743 36.5477 8.33082 36.2584 9.97432L35.6798 13.068H45.998C46.3837 13.068 46.673 13.358 46.673 13.7447V13.8414L45.8051 18.7719C45.7087 19.2553 45.323 19.642 44.8408 19.642H34.619L33.944 23.1224C33.944 23.4124 33.8476 23.7024 33.8476 23.9924C33.8476 24.9592 34.3297 25.2492 35.5833 25.2492H44.0694C44.4551 25.2492 44.7444 25.5393 44.7444 25.926V26.0227L43.7801 31.1465C43.6836 31.6299 43.3943 31.9199 42.8157 32.0166C41.1764 32.21 38.6692 32.5 34.5226 32.5C29.6046 32.5 25.1687 30.7598 25.1687 25.2492C25.1687 24.5725 25.2651 23.8958 25.3616 23.1224L27.7724 9.87764C29.2188 1.37009 34.2333 0.5 40.2121 0.5C44.2622 0.5 46.8659 0.79003 48.4088 0.983384C48.8909 0.983384 49.0838 1.27341 49.0838 1.66012C48.9874 1.7568 48.9874 1.7568 48.9874 1.85347Z" fill="white"/>
<path d="M78.6885 1.75682L73.6741 30.5665C73.4812 31.4366 72.7097 32.1133 71.8419 32.1133H66.6345C65.8631 32.1133 65.3809 31.8233 65.0916 30.9532L58.92 16.8384C58.8236 16.645 58.6307 16.645 58.5343 16.645C58.4378 16.645 58.3414 16.7417 58.245 17.0317L55.7377 31.3399C55.6413 31.8233 55.1591 32.21 54.7734 32.21H48.5053C48.1196 32.21 47.8303 31.92 47.8303 31.5333V31.4366L52.8448 2.62691C53.0376 1.75682 53.8091 1.08008 54.677 1.08008H59.7879C60.5593 1.08008 60.9451 1.56346 61.2344 2.33688L67.5989 16.8384C67.6953 17.1284 67.7917 17.2251 67.8882 17.2251C67.9846 17.2251 68.1774 17.2251 68.1774 16.8384L70.7811 1.95017C70.8775 1.46679 71.3597 1.08008 71.7454 1.08008H78.0135C78.3992 1.08008 78.6885 1.37011 78.6885 1.75682Z" fill="white"/>
<path d="M102.603 32.1133H95.4675C95.0818 32.1133 94.7925 31.7266 94.7925 31.3399L94.6961 25.5393H87.2708L85.0529 31.3399C84.86 31.7266 84.4743 32.1133 84.0886 32.1133H76.6633C76.2776 32.1133 76.0847 31.9199 76.0847 31.5332C76.0847 31.4366 76.0847 31.3399 76.1811 31.2432L86.2101 5.52719C87.8494 1.37009 91.1281 0.5 95.1782 0.5C99.1319 0.5 102.218 1.37009 102.314 5.52719L103.375 31.2432C103.375 31.7266 102.989 32.1133 102.603 32.1133ZM94.4068 8.13746C94.4068 7.75075 94.4068 7.5574 94.021 7.5574C93.6353 7.5574 93.6353 7.75075 93.4425 8.13746L89.4887 18.7719H94.5032L94.4068 8.13746Z" fill="white"/>
<path d="M119.768 1.75681C119.865 1.17675 119.479 0.983398 119.093 0.983398H112.247C111.765 0.983398 111.379 1.27343 111.282 1.75681L109.932 9.20092L119.286 4.85047L119.768 1.75681Z" fill="#E84910"/>
<path d="M109.354 12.4879L106.075 31.3399C105.979 31.7266 106.268 32.21 106.75 32.21H113.597C114.272 32.21 114.561 31.8232 114.561 31.3399L118.611 8.13745L109.354 12.4879Z" fill="white"/>
</svg>
