<svg width="84" height="23" viewBox="0 0 84 23" fill="none" xmlns="http://www.w3.org/2000/svg">
<path d="M17.5429 1.2722L16.8733 4.88792C16.8064 5.22271 16.6055 5.42358 16.2707 5.42358C16.2707 5.42358 16.2707 5.42358 16.2038 5.42358C15.0655 5.35662 11.7846 5.02183 9.6419 5.02183C8.83841 5.02183 7.96796 5.28966 7.96796 6.22707C7.96796 6.62882 8.23579 6.89665 9.24016 7.49927L12.7889 9.57496C14.8646 10.7802 15.6681 12.3872 15.6681 14.4629C15.6681 19.8865 11.115 22.0961 6.16011 22.0961C3.74963 22.0961 1.94177 21.7613 0.401746 21.3595C0.200873 21.3595 0 21.1587 0 20.8908V20.8239L0.602619 17.2751C0.669577 16.9403 0.937407 16.6725 1.2722 16.6725C1.2722 16.6725 1.2722 16.6725 1.33915 16.6725C2.54439 16.8064 5.62444 17.1412 7.16447 17.1412C8.30275 17.1412 9.30712 16.7394 9.30712 15.4003C9.30712 14.9316 9.03929 14.6638 8.16884 14.0611L4.41921 11.5837C2.67831 10.5124 1.87481 8.63755 1.87481 6.82969C1.87481 1.60699 5.95923 0 10.5793 0C12.8559 0 15.9359 0.401747 17.0072 0.736535C17.2081 0.803493 17.476 0.937409 17.476 1.20524C17.5429 1.20524 17.5429 1.2722 17.5429 1.2722Z" fill="#164194"/>
<path d="M34.0144 0.937409L33.4118 4.48617C33.3448 4.82096 33.01 5.08879 32.7422 5.08879H26.8499C25.7786 5.08879 25.3768 5.42358 25.176 6.56186L24.7742 8.70451H31.9387C32.2065 8.70451 32.4074 8.90539 32.4074 9.17322V9.24017L31.8048 12.655C31.7378 12.9898 31.47 13.2576 31.1352 13.2576H24.0377L23.569 15.6681C23.569 15.869 23.502 16.0699 23.502 16.2707C23.502 16.9403 23.8368 17.1412 24.7073 17.1412H30.5995C30.8674 17.1412 31.0682 17.3421 31.0682 17.6099V17.6769L30.3987 21.2256C30.3317 21.5604 30.1308 21.7613 29.7291 21.8282C28.5908 21.9622 26.8499 22.163 23.9707 22.163C20.5559 22.163 17.4758 20.9578 17.4758 17.1412C17.4758 16.6725 17.5428 16.2038 17.6097 15.6681L19.2837 6.4949C20.2881 0.60262 23.7699 0 27.9212 0C30.7335 0 32.5413 0.200873 33.6126 0.334789C33.9474 0.334789 34.0813 0.535662 34.0813 0.803493C34.0144 0.870451 34.0144 0.870451 34.0144 0.937409Z" fill="#164194"/>
<path d="M54.6371 0.87056L51.1554 20.824C51.0214 21.4266 50.4858 21.8953 49.8832 21.8953H46.2674C45.7318 21.8953 45.397 21.6944 45.1961 21.0918L40.9108 11.316C40.8439 11.1821 40.71 11.1821 40.643 11.1821C40.576 11.1821 40.5091 11.249 40.4421 11.4499L38.7012 21.3596C38.6343 21.6944 38.2995 21.9623 38.0316 21.9623H33.6794C33.4116 21.9623 33.2107 21.7614 33.2107 21.4936V21.4266L36.6925 1.47318C36.8264 0.87056 37.3621 0.401855 37.9647 0.401855H41.5134C42.0491 0.401855 42.3169 0.736644 42.5178 1.27231L46.937 11.316C47.004 11.5168 47.0709 11.5838 47.1379 11.5838C47.2049 11.5838 47.3388 11.5838 47.3388 11.316L49.1466 1.00448C49.2136 0.669687 49.5484 0.401855 49.8162 0.401855H54.1684C54.4363 0.401855 54.6371 0.602729 54.6371 0.87056Z" fill="#164194"/>
<path d="M71.2425 21.8952H66.2876C66.0198 21.8952 65.8189 21.6274 65.8189 21.3595L65.7519 17.3421H60.5962L59.0562 21.3595C58.9222 21.6274 58.6544 21.8952 58.3866 21.8952H53.2308C52.963 21.8952 52.8291 21.7613 52.8291 21.4935C52.8291 21.4265 52.8291 21.3595 52.8961 21.2926L59.8597 3.4818C60.9979 0.60262 63.2745 0 66.0867 0C68.832 0 70.9746 0.60262 71.0416 3.4818L71.7781 21.2926C71.7781 21.6274 71.5103 21.8952 71.2425 21.8952ZM65.5511 5.28967C65.5511 5.02183 65.5511 4.88792 65.2832 4.88792C65.0154 4.88792 65.0154 5.02183 64.8815 5.28967L62.1362 12.655H65.618L65.5511 5.28967Z" fill="#164194"/>
<path d="M83.1605 0.870379C83.2274 0.468632 82.9596 0.334717 82.6918 0.334717H77.9378C77.603 0.334717 77.3352 0.53559 77.2682 0.870379L76.3308 6.02613L82.8257 3.01303L83.1605 0.870379Z" fill="#E84910"/>
<path d="M75.9298 8.30289L73.6532 21.3597C73.5863 21.6275 73.7871 21.9623 74.1219 21.9623H78.8759C79.3446 21.9623 79.5455 21.6944 79.5455 21.3597L82.3577 5.28979L75.9298 8.30289Z" fill="#164194"/>
</svg>
