<svg width="200" height="32" viewBox="0 0 200 32" fill="none" xmlns="http://www.w3.org/2000/svg">
<path d="M135.535 0.483151C135.632 0.483151 135.728 0.579828 135.632 0.676505L135.535 1.06321C135.535 1.15989 135.439 1.25657 135.342 1.25657C134.86 1.25657 134.185 1.15989 133.607 1.15989C132.835 1.15989 131.967 1.25657 131.967 2.12666C131.967 2.61004 132.16 2.80339 132.835 3.28678L133.607 3.86684C134.571 4.4469 134.86 5.02696 134.86 5.7037C134.86 7.05717 133.703 7.83059 132.064 7.83059C131.485 7.83059 130.81 7.73391 130.424 7.73391C130.328 7.73391 130.231 7.63723 130.231 7.54056L130.328 7.15385C130.328 7.05717 130.424 6.96049 130.521 6.96049C131.003 6.96049 131.678 7.05717 132.16 7.05717C133.221 7.05717 133.896 6.67046 133.896 5.7037C133.896 5.22031 133.607 5.02696 132.932 4.54358L132.064 3.96351C131.389 3.48013 131.003 2.90007 131.003 2.22333C131.003 0.869858 132.16 0.386475 133.51 0.386475C134.185 0.386475 135.149 0.483151 135.535 0.483151Z" fill="#575756"/>
<path d="M140.26 4.73698L140.164 5.12369C140.164 5.22037 140.067 5.31705 139.971 5.31705H136.596V5.41372C136.596 5.60708 136.499 5.80043 136.499 5.99378C136.499 6.7672 136.982 7.05723 137.753 7.05723C138.332 7.05723 139.007 6.96055 139.489 6.96055C139.682 6.96055 139.682 6.96055 139.682 7.05723L139.585 7.34726C139.585 7.44393 139.489 7.54061 139.392 7.54061C138.814 7.63729 138.332 7.73396 137.657 7.73396C136.692 7.73396 135.728 7.25058 135.728 5.89711C135.728 5.70375 135.728 5.5104 135.824 5.31705L135.921 4.64031C136.21 3.09348 137.174 2.22339 138.525 2.22339C139.778 2.22339 140.357 2.9968 140.357 4.06025C140.26 4.35028 140.26 4.54363 140.26 4.73698ZM138.332 3.09348C137.464 3.09348 136.885 3.77022 136.692 4.64031V4.73698H139.296V4.64031C139.296 4.44695 139.392 4.2536 139.392 4.06025C139.392 3.38351 139.007 3.09348 138.332 3.09348Z" fill="#575756"/>
<path d="M141.514 7.63729C141.514 7.73397 141.417 7.83064 141.321 7.83064H140.839C140.742 7.83064 140.646 7.73397 140.646 7.63729L141.514 2.6101C141.514 2.51342 141.61 2.41675 141.707 2.41675H142.189C142.285 2.41675 142.382 2.51342 142.382 2.6101V2.80345C142.96 2.41675 143.346 2.32007 143.828 2.32007C144.021 2.32007 144.021 2.41675 144.021 2.51342L143.925 2.90013C143.925 2.99681 143.828 3.09348 143.732 3.09348C143.153 3.09348 142.767 3.19016 142.285 3.48019L141.514 7.63729Z" fill="#575756"/>
<path d="M148.843 2.6101L146.818 7.15391C146.528 7.73397 146.143 7.92732 145.757 7.92732C145.371 7.92732 144.986 7.73397 144.889 7.15391L144.311 2.6101C144.311 2.41675 144.407 2.41675 144.503 2.41675H144.986C145.082 2.41675 145.178 2.51342 145.178 2.6101L145.564 6.86388C145.564 7.15391 145.661 7.15391 145.757 7.15391C145.853 7.15391 145.95 7.05723 146.046 6.86388L147.879 2.6101C147.975 2.51342 147.975 2.41675 148.168 2.41675H148.746C148.843 2.41675 148.843 2.51342 148.843 2.51342V2.6101Z" fill="#575756"/>
<path d="M150.386 2.41668C150.482 2.41668 150.579 2.41668 150.579 2.61004L149.711 7.63723C149.711 7.73391 149.614 7.83058 149.518 7.83058H149.036C148.939 7.83058 148.843 7.73391 148.843 7.63723L149.711 2.61004C149.711 2.41668 149.807 2.41668 149.904 2.41668H150.386ZM150.771 0.289795C150.868 0.289795 150.964 0.386472 150.964 0.483148L150.868 1.25656C150.868 1.35324 150.771 1.44992 150.675 1.44992H150.096C149.904 1.44992 149.904 1.35324 149.904 1.25656L150 0.483148C150 0.386472 150.096 0.289795 150.193 0.289795H150.771Z" fill="#575756"/>
<path d="M155.111 2.6101L155.015 2.9968C155.015 3.09348 154.918 3.19016 154.822 3.19016C154.436 3.09348 154.147 3.09348 153.568 3.09348C152.797 3.09348 152.218 3.67354 152.025 4.73698L151.929 5.5104C151.929 5.70375 151.832 5.89711 151.832 6.09046C151.832 6.86387 152.218 7.1539 152.797 7.1539C153.279 7.1539 153.568 7.1539 154.05 7.05723C154.147 7.05723 154.243 7.05723 154.243 7.1539L154.147 7.54061C154.147 7.63729 154.05 7.73396 153.954 7.73396C153.664 7.83064 153.182 7.83064 152.7 7.83064C151.543 7.83064 150.964 7.05723 150.964 5.99378C150.964 5.80043 150.964 5.60708 151.061 5.41372L151.157 4.64031C151.447 2.9968 152.314 2.22339 153.664 2.22339C154.147 2.22339 154.532 2.32007 154.918 2.32007C155.111 2.41674 155.111 2.51342 155.111 2.6101ZM153.279 8.31402L151.929 9.57082C151.832 9.6675 151.832 9.76418 151.639 9.76418H151.061C150.964 9.76418 150.964 9.76418 150.964 9.6675C150.964 9.6675 150.964 9.57082 151.061 9.57082L152.218 8.31402C152.314 8.21735 152.411 8.12067 152.507 8.12067H153.182C153.279 8.12067 153.279 8.12067 153.279 8.31402C153.279 8.21735 153.279 8.21735 153.279 8.31402Z" fill="#575756"/>
<path d="M159.45 4.73699L159.354 5.5104C159.065 7.05723 158.293 7.92732 156.75 7.92732C155.593 7.92732 154.918 7.15391 154.918 6.09046C154.918 5.89711 154.918 5.70375 155.014 5.5104L155.111 4.73699C155.4 3.09348 156.268 2.32007 157.714 2.32007C158.968 2.32007 159.547 3.09348 159.547 4.15693C159.547 4.35028 159.547 4.54363 159.45 4.73699ZM157.618 3.09348C156.75 3.09348 156.172 3.77022 155.979 4.73699L155.786 5.5104C155.786 5.70375 155.689 5.89711 155.689 6.09046C155.689 6.7672 155.979 7.15391 156.75 7.15391C157.618 7.15391 158.197 6.47717 158.39 5.5104L158.486 4.73699C158.486 4.54363 158.582 4.35028 158.582 4.15693C158.679 3.48019 158.39 3.09348 157.618 3.09348Z" fill="#575756"/>
<path d="M167.936 0.676508C167.936 0.579831 168.033 0.483154 168.129 0.483154H168.611C168.708 0.483154 168.804 0.579831 168.804 0.676508L167.551 7.54056C167.551 7.73391 167.454 7.83059 167.261 7.83059H166.683C166.49 7.83059 166.393 7.73391 166.393 7.63723L164.272 1.83663L163.211 7.63723C163.211 7.73391 163.115 7.83059 163.018 7.83059H162.44C162.343 7.83059 162.343 7.83059 162.343 7.73391L163.597 0.773185C163.597 0.579831 163.693 0.483154 163.886 0.483154H164.368C164.658 0.483154 164.658 0.579831 164.754 0.676508L166.779 6.38044L167.936 0.676508Z" fill="#575756"/>
<path d="M173.337 2.51342C173.529 2.51342 173.529 2.6101 173.529 2.70678L172.661 7.54061C172.661 7.63729 172.565 7.73397 172.469 7.73397H172.083C171.89 7.73397 171.89 7.63729 171.89 7.54061L171.986 7.25058C171.408 7.63729 171.022 7.83064 170.444 7.83064C169.576 7.83064 168.901 7.25058 168.901 6.09046C168.901 5.89711 168.901 5.70376 168.997 5.5104L169.19 4.54363C169.479 2.80345 170.54 2.32007 171.794 2.32007C172.179 2.32007 172.854 2.41675 173.337 2.51342ZM171.601 2.99681C170.54 2.99681 170.058 3.57687 169.865 4.64031L169.672 5.70376C169.672 5.89711 169.672 5.99379 169.672 6.18714C169.672 6.96055 170.058 7.25058 170.54 7.25058C171.022 7.25058 171.408 7.05723 171.986 6.67052L172.565 3.19016C172.276 3.09348 171.986 2.99681 171.601 2.99681Z" fill="#575756"/>
<path d="M174.879 4.73698L174.783 5.5104C174.783 5.70375 174.686 5.89711 174.686 6.09046C174.686 6.86387 175.072 7.1539 175.651 7.1539C176.133 7.1539 176.422 7.1539 176.904 7.05723C177.097 7.05723 177.097 7.05723 177.097 7.25058V7.54061C177.097 7.63729 177.001 7.73396 176.904 7.73396C176.615 7.83064 176.133 7.83064 175.651 7.83064C174.494 7.83064 173.915 7.05723 173.915 5.99378C173.915 5.80043 173.915 5.60708 174.011 5.41372L174.108 4.64031C174.397 2.9968 175.265 2.22339 176.615 2.22339C177.097 2.22339 177.483 2.32007 177.869 2.32007C178.062 2.32007 178.062 2.41674 178.062 2.51342L177.965 2.90013C177.965 2.9968 177.869 3.09348 177.772 3.09348C177.387 2.9968 177.097 2.9968 176.519 2.9968C175.651 3.09348 175.072 3.67354 174.879 4.73698Z" fill="#575756"/>
<path d="M179.605 2.41668C179.701 2.41668 179.798 2.41668 179.798 2.61004L178.93 7.63723C178.93 7.73391 178.833 7.83058 178.737 7.83058H178.255C178.158 7.83058 178.062 7.73391 178.062 7.63723L178.93 2.61004C178.93 2.41668 179.026 2.41668 179.123 2.41668H179.605ZM179.99 0.289795C180.087 0.289795 180.183 0.386472 180.183 0.483148L180.087 1.25656C180.087 1.35324 179.99 1.44992 179.894 1.44992H179.412C179.219 1.44992 179.219 1.35324 179.219 1.25656L179.315 0.483148C179.315 0.386472 179.412 0.289795 179.508 0.289795H179.99Z" fill="#575756"/>
<path d="M184.812 4.73699L184.715 5.5104C184.426 7.05723 183.655 7.92732 182.112 7.92732C180.955 7.92732 180.28 7.15391 180.28 6.09046C180.28 5.89711 180.28 5.70375 180.376 5.5104L180.472 4.73699C180.762 3.09348 181.63 2.32007 183.076 2.32007C184.33 2.32007 184.908 3.09348 184.908 4.15693C184.908 4.35028 184.908 4.54363 184.812 4.73699ZM182.98 3.09348C182.112 3.09348 181.533 3.77022 181.34 4.73699L181.147 5.5104C181.147 5.70375 181.051 5.89711 181.051 6.09046C181.051 6.7672 181.34 7.15391 182.112 7.15391C182.98 7.15391 183.558 6.47717 183.751 5.5104L183.848 4.73699C183.848 4.54363 183.944 4.35028 183.944 4.15693C184.04 3.48019 183.751 3.09348 182.98 3.09348Z" fill="#575756"/>
<path d="M190.019 4.35028L189.441 7.63729C189.441 7.73396 189.344 7.83064 189.248 7.83064H188.669C188.573 7.83064 188.476 7.73396 188.476 7.63729L189.055 4.35028C189.055 4.15692 189.151 3.96357 189.151 3.77022C189.151 3.28683 188.958 2.9968 188.187 2.9968C187.801 2.9968 187.415 3.09348 186.837 3.38351L186.065 7.54061C186.065 7.63729 185.969 7.73396 185.873 7.73396H185.39C185.294 7.73396 185.198 7.63729 185.198 7.54061L186.065 2.51342C186.065 2.41674 186.162 2.32007 186.355 2.32007H186.74C186.933 2.32007 186.933 2.41674 186.933 2.51342V2.70677C187.415 2.41674 187.898 2.22339 188.476 2.22339C189.537 2.22339 189.923 2.90013 189.923 3.77022C190.019 3.96357 190.019 4.15692 190.019 4.35028Z" fill="#575756"/>
<path d="M195.034 2.51342C195.227 2.51342 195.227 2.6101 195.227 2.70678L194.359 7.54061C194.359 7.63729 194.262 7.73397 194.166 7.73397H193.78C193.587 7.73397 193.587 7.63729 193.587 7.54061L193.684 7.25058C193.105 7.63729 192.719 7.83064 192.141 7.83064C191.273 7.83064 190.598 7.25058 190.598 6.09046C190.598 5.89711 190.598 5.70376 190.694 5.5104L190.887 4.54363C191.176 2.80345 192.237 2.32007 193.491 2.32007C193.877 2.32007 194.552 2.41675 195.034 2.51342ZM193.298 2.99681C192.237 2.99681 191.755 3.57687 191.562 4.64031L191.369 5.70376C191.369 5.89711 191.369 5.99379 191.369 6.18714C191.369 6.96055 191.755 7.25058 192.237 7.25058C192.719 7.25058 193.105 7.05723 193.684 6.67052L194.262 3.19016C193.973 3.09348 193.684 2.99681 193.298 2.99681Z" fill="#575756"/>
<path d="M197.541 0.386475C197.637 0.386475 197.734 0.483151 197.637 0.579828L196.384 7.63723C196.384 7.73391 196.287 7.83059 196.191 7.83059H195.709C195.612 7.83059 195.516 7.73391 195.612 7.63723L196.866 0.579828C196.866 0.483151 196.962 0.386475 197.059 0.386475H197.541Z" fill="#575756"/>
<path d="M132.931 12.2776H133.414C133.51 12.2776 133.606 12.3743 133.51 12.4709L132.256 19.4317C132.256 19.5283 132.16 19.625 131.967 19.625C131.292 19.7217 130.714 19.8184 130.135 19.8184C128.881 19.8184 128.303 19.045 128.303 17.9815C128.303 17.7882 128.303 17.5948 128.399 17.4015L128.496 16.7247C128.785 14.9845 129.653 14.3078 131.099 14.3078C131.389 14.3078 131.871 14.3078 132.256 14.4045L132.546 12.5676C132.739 12.2776 132.835 12.2776 132.931 12.2776ZM131.099 14.9845C130.135 14.9845 129.653 15.6613 129.556 16.628L129.46 17.3048C129.46 17.4981 129.363 17.7882 129.363 17.9815C129.363 18.6583 129.653 19.045 130.424 19.045C130.714 19.045 131.292 19.045 131.581 18.9483L132.256 14.9845C131.967 14.9845 131.485 14.9845 131.099 14.9845Z" fill="#575756"/>
<path d="M138.139 16.6283L138.042 17.015C138.042 17.1117 137.946 17.2084 137.849 17.2084H134.474V17.3051C134.474 17.4984 134.378 17.6918 134.378 17.8851C134.378 18.6586 134.86 18.9486 135.632 18.9486C136.21 18.9486 136.885 18.8519 137.367 18.8519C137.56 18.8519 137.56 18.8519 137.56 18.9486L137.464 19.2386C137.464 19.3353 137.367 19.432 137.271 19.432C136.692 19.5286 136.21 19.6253 135.535 19.6253C134.571 19.6253 133.606 19.1419 133.606 17.7885C133.606 17.5951 133.606 17.4018 133.703 17.2084L133.799 16.5317C134.089 14.9848 135.053 14.1147 136.403 14.1147C137.657 14.1147 138.235 14.8882 138.235 15.9516C138.235 16.2416 138.235 16.435 138.139 16.6283ZM136.307 14.9848C135.439 14.9848 134.86 15.6616 134.667 16.5317V16.6283H137.271V16.5317C137.271 16.3383 137.367 16.145 137.367 15.9516C137.367 15.2749 136.982 14.9848 136.307 14.9848Z" fill="#575756"/>
<path d="M146.143 19.7217H145.564C145.468 19.7217 145.468 19.625 145.468 19.5283L145.178 17.2081H142.575L141.514 19.5283C141.514 19.625 141.417 19.7217 141.321 19.7217H140.742C140.646 19.7217 140.646 19.625 140.646 19.625V19.5283L143.635 13.051C143.925 12.4709 144.31 12.2776 144.793 12.2776C145.178 12.2776 145.564 12.3743 145.66 13.051L146.335 19.5283C146.335 19.625 146.239 19.7217 146.143 19.7217ZM144.793 13.2444C144.793 13.1477 144.696 13.051 144.6 13.051C144.503 13.051 144.407 13.1477 144.407 13.2444L142.96 16.5314H145.178L144.793 13.2444Z" fill="#575756"/>
<path d="M151.639 16.6281L151.543 17.3048C151.253 18.9483 150.482 19.7218 148.939 19.7218C148.65 19.7218 148.168 19.7218 147.782 19.6251L147.493 21.4619C147.493 21.5586 147.396 21.6553 147.3 21.6553H146.818C146.721 21.6553 146.721 21.5586 146.721 21.4619L147.878 14.6946C147.878 14.5979 147.975 14.5012 148.168 14.5012C148.746 14.4045 149.421 14.3079 150 14.3079C151.253 14.3079 151.832 15.0813 151.832 16.1447C151.736 16.2414 151.736 16.4347 151.639 16.6281ZM149.807 14.8879C149.421 14.8879 148.939 14.9846 148.65 14.9846L147.975 18.9483C148.264 19.045 148.843 19.045 149.132 19.045C150 19.045 150.482 18.3683 150.675 17.3048L150.771 16.6281C150.868 16.3381 150.868 16.1447 150.868 15.9514C150.868 15.2746 150.578 14.8879 149.807 14.8879Z" fill="#575756"/>
<path d="M152.989 19.5286C152.989 19.6253 152.893 19.722 152.797 19.722H152.314C152.218 19.722 152.122 19.6253 152.122 19.5286L152.989 14.5015C152.989 14.4048 153.086 14.3081 153.182 14.3081H153.664C153.761 14.3081 153.857 14.4048 153.857 14.5015V14.6948C154.436 14.3081 154.822 14.2114 155.304 14.2114C155.497 14.2114 155.497 14.3081 155.497 14.4048L155.4 14.7915C155.4 14.8882 155.304 14.9848 155.207 14.9848C154.629 14.9848 154.243 15.0815 153.761 15.3715L152.989 19.5286Z" fill="#575756"/>
<path d="M159.643 16.6283L159.547 17.015C159.547 17.1117 159.45 17.2084 159.354 17.2084H155.979V17.3051C155.979 17.4984 155.882 17.6918 155.882 17.8851C155.882 18.6586 156.364 18.9486 157.136 18.9486C157.715 18.9486 158.39 18.8519 158.872 18.8519C159.065 18.8519 159.065 18.8519 159.065 18.9486L158.968 19.2386C158.968 19.3353 158.872 19.432 158.775 19.432C158.197 19.5286 157.715 19.6253 157.039 19.6253C156.075 19.6253 155.111 19.1419 155.111 17.7885C155.111 17.5951 155.111 17.4018 155.207 17.2084L155.304 16.5317C155.593 14.9848 156.557 14.1147 157.907 14.1147C159.161 14.1147 159.74 14.8882 159.74 15.9516C159.74 16.2416 159.74 16.435 159.643 16.6283ZM157.811 14.9848C156.943 14.9848 156.364 15.6616 156.172 16.5317V16.6283H158.775V16.5317C158.775 16.3383 158.872 16.145 158.872 15.9516C158.872 15.2749 158.486 14.9848 157.811 14.9848Z" fill="#575756"/>
<path d="M164.85 16.2416L164.272 19.5286C164.272 19.6253 164.175 19.722 164.079 19.722H163.597C163.5 19.722 163.404 19.6253 163.404 19.5286L163.983 16.2416C163.983 16.0483 164.079 15.8549 164.079 15.6616C164.079 15.1782 163.886 14.8882 163.115 14.8882C162.729 14.8882 162.343 14.9848 161.765 15.2749L160.993 19.432C160.993 19.5286 160.897 19.6253 160.8 19.6253H160.318C160.222 19.6253 160.125 19.5286 160.125 19.432L160.993 14.4048C160.993 14.3081 161.09 14.2114 161.282 14.2114H161.668C161.861 14.2114 161.861 14.3081 161.861 14.4048V14.5981C162.343 14.3081 162.825 14.1147 163.404 14.1147C164.465 14.1147 164.85 14.7915 164.85 15.6616C164.85 15.8549 164.85 16.0483 164.85 16.2416Z" fill="#575756"/>
<path d="M169.961 12.2776H170.444C170.54 12.2776 170.637 12.3743 170.54 12.4709L169.286 19.4317C169.286 19.5283 169.19 19.625 168.997 19.625C168.322 19.7217 167.744 19.8184 167.165 19.8184C165.911 19.8184 165.333 19.045 165.333 17.9815C165.333 17.7882 165.333 17.5948 165.429 17.4015L165.526 16.7247C165.815 14.9845 166.683 14.3078 168.129 14.3078C168.419 14.3078 168.901 14.3078 169.286 14.4045L169.576 12.5676C169.769 12.2776 169.769 12.2776 169.961 12.2776ZM168.129 14.9845C167.165 14.9845 166.683 15.6613 166.586 16.628L166.49 17.3048C166.49 17.4981 166.394 17.7882 166.394 17.9815C166.394 18.6583 166.683 19.045 167.454 19.045C167.744 19.045 168.322 19.045 168.611 18.9483L169.286 14.9845C168.901 14.9845 168.419 14.9845 168.129 14.9845Z" fill="#575756"/>
<path d="M172.083 14.2111C172.179 14.2111 172.276 14.2111 172.276 14.4045L171.408 19.4317C171.408 19.5283 171.311 19.625 171.215 19.625H170.733C170.636 19.625 170.54 19.5283 170.54 19.4317L171.408 14.4045C171.408 14.2111 171.504 14.2111 171.601 14.2111H172.083ZM172.469 12.1809C172.565 12.1809 172.662 12.2776 172.662 12.3743L172.565 13.1477C172.565 13.2444 172.469 13.341 172.372 13.341H171.89C171.697 13.341 171.697 13.2444 171.697 13.1477L171.794 12.3743C171.794 12.2776 171.89 12.1809 171.987 12.1809H172.469Z" fill="#575756"/>
<path d="M176.519 15.5649L173.433 18.7552C173.336 18.8519 173.336 18.8519 173.336 18.8519C173.336 18.8519 173.336 18.9486 173.433 18.9486H175.94C176.133 18.9486 176.133 19.0453 176.133 19.1419L176.036 19.432C176.036 19.6253 175.94 19.6253 175.844 19.6253H173.336C172.758 19.6253 172.469 19.3353 172.469 18.9486C172.469 18.7552 172.565 18.5619 172.661 18.3685L175.844 15.0815C175.94 14.9848 175.94 14.9848 175.94 14.9848C175.94 14.9848 175.94 14.8882 175.844 14.8882H173.433C173.336 14.8882 173.24 14.7915 173.24 14.6948L173.336 14.4048C173.336 14.2114 173.433 14.2114 173.529 14.2114H176.036C176.615 14.2114 176.808 14.5015 176.808 14.8882C176.712 15.1782 176.712 15.3715 176.519 15.5649Z" fill="#575756"/>
<path d="M181.533 14.4048C181.726 14.4048 181.726 14.5015 181.726 14.5981L180.858 19.432C180.858 19.5286 180.762 19.6253 180.665 19.6253H180.28C180.087 19.6253 180.087 19.5286 180.087 19.432L180.183 19.1419C179.605 19.5286 179.219 19.722 178.64 19.722C177.772 19.722 177.097 19.1419 177.097 17.9818C177.097 17.7885 177.097 17.5951 177.194 17.4018L177.387 16.435C177.676 14.6948 178.737 14.2114 179.99 14.2114C180.376 14.2114 180.955 14.3081 181.533 14.4048ZM179.798 14.8882C178.737 14.8882 178.255 15.4682 178.062 16.5317L177.869 17.5951C177.869 17.7885 177.869 17.8851 177.869 18.0785C177.869 18.8519 178.255 19.1419 178.737 19.1419C179.219 19.1419 179.605 18.9486 180.183 18.5619L180.762 15.0815C180.473 14.9848 180.183 14.8882 179.798 14.8882Z" fill="#575756"/>
<path d="M182.208 16.6283C182.498 14.8882 183.365 14.2114 184.812 14.2114C185.39 14.2114 186.066 14.3081 186.548 14.4048C186.741 14.4048 186.741 14.5015 186.741 14.5981L185.873 19.6253C185.583 21.1722 184.908 21.5589 183.558 21.5589C182.787 21.5589 182.208 21.4622 181.919 21.3655C181.726 21.3655 181.726 21.2688 181.726 21.1722L181.822 20.8821C181.822 20.7854 181.919 20.6888 182.015 20.6888C182.305 20.6888 183.173 20.7854 183.655 20.7854C184.523 20.7854 184.812 20.4954 185.005 19.6253V19.5286C184.715 19.6253 184.137 19.6253 183.848 19.6253C182.787 19.6253 182.015 19.1419 182.015 17.8851C182.015 17.6918 182.015 17.4984 182.112 17.2084L182.208 16.6283ZM184.715 14.8882C183.751 14.8882 183.269 15.4682 183.076 16.6283L182.98 17.3051C182.883 17.5951 182.883 17.7885 182.883 17.9818C182.883 18.7552 183.269 18.9486 183.944 18.9486C184.233 18.9486 184.715 18.9486 185.101 18.8519L185.776 14.9848C185.487 14.9848 185.101 14.8882 184.715 14.8882Z" fill="#575756"/>
<path d="M191.659 16.6283L191.562 17.015C191.562 17.1117 191.466 17.2084 191.369 17.2084H187.994V17.3051C187.994 17.4984 187.898 17.6918 187.898 17.8851C187.898 18.6586 188.38 18.9486 189.151 18.9486C189.73 18.9486 190.405 18.8519 190.887 18.8519C191.08 18.8519 191.08 18.8519 191.08 18.9486L190.983 19.2386C190.983 19.3353 190.887 19.432 190.791 19.432C190.212 19.5286 189.73 19.6253 189.055 19.6253C188.091 19.6253 187.126 19.1419 187.126 17.7885C187.126 17.5951 187.126 17.4018 187.223 17.2084L187.319 16.5317C187.608 14.9848 188.573 14.1147 189.923 14.1147C191.176 14.1147 191.755 14.8882 191.755 15.9516C191.755 16.2416 191.755 16.435 191.659 16.6283ZM189.826 14.9848C188.958 14.9848 188.38 15.6616 188.187 16.5317V16.6283H190.791V16.5317C190.791 16.3383 190.887 16.145 190.887 15.9516C190.887 15.2749 190.501 14.9848 189.826 14.9848Z" fill="#575756"/>
<path d="M199.18 16.0483L198.602 19.5286C198.602 19.6253 198.505 19.722 198.409 19.722H197.927C197.83 19.722 197.734 19.6253 197.734 19.5286L198.312 16.0483C198.312 15.8549 198.312 15.7583 198.312 15.6616C198.312 15.1782 198.023 14.9848 197.541 14.9848C197.252 14.9848 196.769 15.0815 196.287 15.2749C196.287 15.4682 196.287 15.8549 196.287 16.0483L195.709 19.5286C195.709 19.6253 195.612 19.722 195.516 19.722H195.034C194.937 19.722 194.841 19.6253 194.937 19.5286L195.516 16.0483C195.516 15.8549 195.612 15.6616 195.612 15.4682C195.612 15.0815 195.323 14.8882 195.034 14.8882C194.552 14.8882 193.973 15.1782 193.684 15.2749L192.912 19.432C192.912 19.5286 192.816 19.6253 192.719 19.6253H192.237C192.141 19.6253 192.044 19.5286 192.141 19.432L193.009 14.4048C193.009 14.3081 193.105 14.2114 193.202 14.2114H193.684C193.877 14.2114 193.877 14.3081 193.877 14.4048V14.5981C194.359 14.3081 194.841 14.1147 195.323 14.1147C195.709 14.1147 196.094 14.3081 196.287 14.5981C196.866 14.2114 197.348 14.1147 197.927 14.1147C198.891 14.1147 199.373 14.6948 199.373 15.5649C199.277 15.7583 199.277 15.8549 199.18 16.0483Z" fill="#575756"/>
<path d="M128.303 24.2656C128.399 24.2656 128.496 24.3623 128.496 24.459L127.242 31.4197C127.242 31.5164 127.146 31.6131 127.049 31.6131H126.471C126.374 31.6131 126.278 31.5164 126.374 31.4197L127.628 24.459C127.628 24.3623 127.724 24.2656 127.821 24.2656H128.303Z" fill="#575756"/>
<path d="M133.221 28.1327L132.642 31.4198C132.642 31.5164 132.546 31.6131 132.449 31.6131H131.967C131.871 31.6131 131.774 31.5164 131.774 31.4198L132.353 28.1327C132.353 27.9394 132.449 27.746 132.449 27.5527C132.449 27.0693 132.256 26.7793 131.485 26.7793C131.099 26.7793 130.714 26.8759 130.135 27.166L129.363 31.3231C129.363 31.4198 129.267 31.5164 129.171 31.5164H128.688C128.592 31.5164 128.496 31.4198 128.496 31.3231L129.363 26.2959C129.363 26.1992 129.46 26.1025 129.653 26.1025H130.039C130.231 26.1025 130.231 26.1992 130.231 26.2959V26.4892C130.714 26.1992 131.196 26.0059 131.774 26.0059C132.835 26.0059 133.221 26.6826 133.221 27.5527C133.317 27.746 133.221 27.9394 133.221 28.1327Z" fill="#575756"/>
<path d="M138.332 24.1689H138.814C138.91 24.1689 139.007 24.2656 138.91 24.3623L137.657 31.323C137.657 31.4197 137.56 31.5164 137.368 31.5164C136.693 31.6131 136.114 31.7097 135.535 31.7097C134.282 31.7097 133.703 30.9363 133.703 29.8729C133.703 29.6795 133.703 29.4862 133.8 29.2928L133.896 28.6161C134.185 26.8759 135.053 26.1992 136.5 26.1992C136.789 26.1992 137.271 26.1992 137.657 26.2958L137.946 24.459C138.139 24.1689 138.235 24.1689 138.332 24.1689ZM136.5 26.7792C135.535 26.7792 135.053 27.456 134.957 28.4227L134.86 29.0995C134.86 29.2928 134.764 29.5828 134.764 29.7762C134.764 30.4529 135.053 30.8396 135.825 30.8396C136.114 30.8396 136.693 30.8396 136.982 30.743L137.657 26.7792C137.368 26.8759 136.885 26.7792 136.5 26.7792Z" fill="#575756"/>
<path d="M143.732 26.1025C143.828 26.1025 143.925 26.1992 143.925 26.2959L143.057 31.3231C143.057 31.4198 142.961 31.5164 142.864 31.5164H142.382C142.286 31.5164 142.189 31.4198 142.189 31.3231V31.1297C141.61 31.4198 141.128 31.6131 140.55 31.6131C139.682 31.6131 139.103 31.1297 139.103 30.0663C139.103 29.8729 139.103 29.6796 139.2 29.4862L139.778 26.2959C139.778 26.1025 139.875 26.1025 139.971 26.1025H140.453C140.55 26.1025 140.646 26.1992 140.646 26.2959L140.068 29.5829C140.068 29.7763 139.971 29.9696 139.971 30.163C139.971 30.743 140.26 30.9364 140.935 30.9364C141.321 30.9364 141.803 30.8397 142.382 30.5497L143.153 26.3926C143.153 26.2959 143.25 26.1992 143.346 26.1992H143.732V26.1025Z" fill="#575756"/>
<path d="M148.071 26.1992C148.264 26.1992 148.264 26.2959 148.264 26.3926L148.168 26.6826C148.168 26.7793 148.071 26.8759 147.975 26.8759C147.686 26.8759 147.107 26.7793 146.528 26.7793C146.046 26.7793 145.468 26.8759 145.468 27.456C145.468 27.746 145.661 27.9394 146.046 28.1327L146.914 28.7128C147.589 29.1962 147.782 29.4862 147.782 30.0663C147.782 31.2264 146.721 31.6131 145.661 31.6131C145.275 31.6131 144.6 31.6131 144.118 31.4198C144.021 31.4198 143.925 31.3231 143.925 31.2264L144.021 30.8397C144.021 30.743 144.118 30.6463 144.311 30.6463C144.793 30.743 145.468 30.743 145.853 30.743C146.432 30.743 147.011 30.5497 147.011 29.8729C147.011 29.6796 146.914 29.4862 146.432 29.1962L145.564 28.6161C144.986 28.2294 144.696 27.8427 144.696 27.3593C144.696 26.2959 145.757 25.9092 146.721 25.9092C147.396 26.1025 147.686 26.1025 148.071 26.1992Z" fill="#575756"/>
<path d="M151.736 26.1025C151.832 26.1025 151.929 26.1992 151.929 26.2959L151.832 26.5859C151.832 26.7792 151.736 26.7792 151.639 26.7792H150.579L150 30.2596C150 30.3563 150 30.453 150 30.5496C150 30.8397 150.096 30.8397 150.482 30.8397H151.061C151.157 30.8397 151.254 30.8397 151.157 30.9363L151.061 31.323C151.061 31.4197 150.964 31.5164 150.868 31.5164C150.675 31.5164 150.386 31.6131 150.289 31.6131C149.614 31.6131 149.132 31.323 149.132 30.6463C149.132 30.5496 149.132 30.453 149.132 30.2596L149.711 26.7792L148.746 26.6826C148.65 26.6826 148.553 26.5859 148.553 26.4892L148.65 26.1992C148.65 26.1025 148.746 26.0058 148.843 26.0058H149.807L150 25.0391C150 24.9424 150.096 24.8457 150.193 24.8457L150.675 24.749C150.771 24.749 150.868 24.8457 150.868 24.9424L150.675 26.0058H151.736V26.1025Z" fill="#575756"/>
<path d="M152.604 31.4198C152.604 31.5164 152.507 31.6131 152.411 31.6131H151.929C151.832 31.6131 151.736 31.5164 151.736 31.4198L152.604 26.3926C152.604 26.2959 152.7 26.1992 152.797 26.1992H153.279C153.375 26.1992 153.472 26.2959 153.472 26.3926V26.5859C154.05 26.1992 154.436 26.1025 154.918 26.1025C155.111 26.1025 155.111 26.1992 155.111 26.2959L155.015 26.6826C155.015 26.7793 154.918 26.876 154.822 26.876C154.243 26.876 153.857 26.9726 153.375 27.2627L152.604 31.4198Z" fill="#575756"/>
<path d="M156.557 26.1025C156.654 26.1025 156.75 26.1025 156.75 26.2958L155.882 31.323C155.882 31.4197 155.786 31.5164 155.689 31.5164H155.207C155.111 31.5164 155.014 31.4197 155.014 31.323L155.882 26.2958C155.882 26.1025 155.979 26.1025 156.075 26.1025H156.557ZM156.943 24.0723C157.039 24.0723 157.136 24.1689 157.136 24.2656L157.039 25.039C157.039 25.1357 156.943 25.2324 156.847 25.2324H156.364C156.172 25.2324 156.172 25.1357 156.172 25.039L156.268 24.2656C156.268 24.1689 156.364 24.0723 156.461 24.0723H156.943Z" fill="#575756"/>
<path d="M161.572 26.2959C161.765 26.2959 161.765 26.3926 161.765 26.4892L160.897 31.3231C160.897 31.4198 160.8 31.5164 160.704 31.5164H160.318C160.125 31.5164 160.125 31.4198 160.125 31.3231L160.222 31.0331C159.643 31.4198 159.257 31.6131 158.679 31.6131C157.811 31.6131 157.136 31.0331 157.136 29.8729C157.136 29.6796 157.136 29.4862 157.232 29.2929L157.425 28.3261C157.715 26.5859 158.775 26.1025 160.029 26.1025C160.415 26.1025 161.09 26.1992 161.572 26.2959ZM159.836 26.7793C158.775 26.7793 158.293 27.3593 158.1 28.4228L157.907 29.4862C157.907 29.6796 157.907 29.7763 157.907 29.9696C157.907 30.743 158.293 31.0331 158.775 31.0331C159.257 31.0331 159.643 30.8397 160.222 30.453L160.8 26.9726C160.608 26.876 160.318 26.7793 159.836 26.7793Z" fill="#575756"/>
<path d="M164.079 24.1689C164.175 24.1689 164.272 24.2656 164.175 24.3623L162.922 31.4197C162.922 31.5164 162.825 31.6131 162.729 31.6131H162.247C162.15 31.6131 162.054 31.5164 162.15 31.4197L163.404 24.3623C163.404 24.2656 163.5 24.1689 163.597 24.1689H164.079Z" fill="#575756"/>
<path d="M25.8921 1.83686L24.9278 7.0574C24.8314 7.54078 24.5421 7.83081 24.0599 7.83081C24.0599 7.83081 24.0599 7.83081 23.9635 7.83081C22.3241 7.73414 17.599 7.25075 14.5131 7.25075C13.356 7.25075 12.1023 7.63746 12.1023 8.99094C12.1023 9.571 12.4881 9.9577 13.9346 10.8278L19.0454 13.8248C22.0348 15.565 23.192 17.8852 23.192 20.8822C23.192 28.713 16.6346 31.9033 9.49869 31.9033C6.02714 31.9033 3.42348 31.4199 1.20554 30.8399C0.916249 30.8399 0.626953 30.5498 0.626953 30.1631V30.0665L1.49484 24.9426C1.59127 24.4592 1.977 24.0725 2.45916 24.0725C2.45916 24.0725 2.45916 24.0725 2.55559 24.0725C4.29136 24.2659 8.72723 24.7492 10.9452 24.7492C12.5845 24.7492 14.031 24.1692 14.031 22.2356C14.031 21.5589 13.6453 21.1722 12.3916 20.3021L6.99146 16.7251C4.48423 15.1782 3.32705 12.4713 3.32705 9.86103C3.32705 2.32024 9.20939 0 15.8632 0C19.1419 0 23.5777 0.58006 25.1207 1.06344C25.4099 1.16012 25.7957 1.35347 25.7957 1.74018C25.8921 1.74018 25.8921 1.83686 25.8921 1.83686Z" fill="#164194"/>
<path d="M49.6143 1.35347L48.7464 6.47734C48.65 6.96072 48.1679 7.34743 47.7821 7.34743H39.2961C37.7532 7.34743 37.1746 7.83082 36.8853 9.47432L36.3067 12.568H46.6249C47.0107 12.568 47.3 12.858 47.3 13.2447V13.3414L46.4321 18.2719C46.3356 18.7553 45.9499 19.142 45.4678 19.142H35.246L34.571 22.6224C34.571 22.9124 34.4745 23.2024 34.4745 23.4924C34.4745 24.4592 34.9567 24.7492 36.2103 24.7492H44.6963C45.082 24.7492 45.3713 25.0393 45.3713 25.426V25.5227L44.407 30.6465C44.3106 31.1299 44.0213 31.4199 43.4427 31.5166C41.8033 31.71 39.2961 32 35.1495 32C30.2315 32 25.7957 30.2598 25.7957 24.7492C25.7957 24.0725 25.8921 23.3958 25.9885 22.6224L28.3993 9.37764C29.8458 0.87009 34.8603 0 40.839 0C44.8892 0 47.4928 0.29003 49.0357 0.483384C49.5179 0.483384 49.7108 0.773414 49.7108 1.16012C49.6143 1.2568 49.6143 1.2568 49.6143 1.35347Z" fill="#164194"/>
<path d="M79.3155 1.25682L74.301 30.0665C74.1082 30.9366 73.3367 31.6133 72.4688 31.6133H67.2615C66.49 31.6133 66.0079 31.3233 65.7186 30.4532L59.5469 16.3384C59.4505 16.145 59.2576 16.145 59.1612 16.145C59.0648 16.145 58.9684 16.2417 58.8719 16.5317L56.3647 30.8399C56.2683 31.3233 55.7861 31.71 55.4004 31.71H49.1323C48.7466 31.71 48.4573 31.42 48.4573 31.0333V30.9366L53.4717 2.12691C53.6646 1.25682 54.4361 0.580078 55.3039 0.580078H60.4148C61.1863 0.580078 61.572 1.06346 61.8613 1.83688L68.2258 16.3384C68.3222 16.6284 68.4187 16.7251 68.5151 16.7251C68.6115 16.7251 68.8044 16.7251 68.8044 16.3384L71.4081 1.45017C71.5045 0.966785 71.9867 0.580078 72.3724 0.580078H78.6405C79.0262 0.580078 79.3155 0.870108 79.3155 1.25682Z" fill="#164194"/>
<path d="M103.23 31.6133H96.0945C95.7087 31.6133 95.4195 31.2266 95.4195 30.8399L95.323 25.0393H87.8978L85.6798 30.8399C85.487 31.2266 85.1012 31.6133 84.7155 31.6133H77.2903C76.9045 31.6133 76.7117 31.4199 76.7117 31.0332C76.7117 30.9366 76.7117 30.8399 76.8081 30.7432L86.837 5.02719C88.4764 0.87009 91.755 0 95.8052 0C99.7589 0 102.845 0.87009 102.941 5.02719L104.002 30.7432C104.002 31.2266 103.616 31.6133 103.23 31.6133ZM95.0337 7.63746C95.0337 7.25075 95.0337 7.0574 94.648 7.0574C94.2623 7.0574 94.2623 7.25075 94.0694 7.63746L90.1157 18.2719H95.1302L95.0337 7.63746Z" fill="#164194"/>
<path d="M120.395 1.25681C120.492 0.676752 120.106 0.483398 119.72 0.483398H112.874C112.392 0.483398 112.006 0.773429 111.909 1.25681L110.559 8.70092L119.913 4.35047L120.395 1.25681Z" fill="#E84910"/>
<path d="M109.981 11.9879L106.702 30.8399C106.606 31.2266 106.895 31.71 107.377 31.71H114.224C114.899 31.71 115.188 31.3232 115.188 30.8399L119.238 7.63745L109.981 11.9879Z" fill="#164194"/>
</svg>
